<?xml version="1.0" encoding="UTF-8" standalone="no"?>
<!-- Created with Inkscape (http://www.inkscape.org/) -->

<svg
   width="1500mm"
   height="300mm"
   viewBox="0 0 1500 300"
   version="1.1"
   id="svg5"
   xml:space="preserve"
   inkscape:version="1.2.1 (9c6d41e410, 2022-07-14)"
   sodipodi:docname="global_interpolation.svg"
   xmlns:inkscape="http://www.inkscape.org/namespaces/inkscape"
   xmlns:sodipodi="http://sodipodi.sourceforge.net/DTD/sodipodi-0.dtd"
   xmlns:xlink="http://www.w3.org/1999/xlink"
   xmlns="http://www.w3.org/2000/svg"
   xmlns:svg="http://www.w3.org/2000/svg"><sodipodi:namedview
     id="namedview7"
     pagecolor="#ffffff"
     bordercolor="#666666"
     borderopacity="1.0"
     inkscape:showpageshadow="2"
     inkscape:pageopacity="0.0"
     inkscape:pagecheckerboard="0"
     inkscape:deskcolor="#d1d1d1"
     inkscape:document-units="mm"
     showgrid="true"
     inkscape:zoom="0.52724989"
     inkscape:cx="2855.3823"
     inkscape:cy="1331.437"
     inkscape:window-width="2560"
     inkscape:window-height="1377"
     inkscape:window-x="1912"
     inkscape:window-y="-8"
     inkscape:window-maximized="1"
     inkscape:current-layer="layer1"><inkscape:grid
       type="xygrid"
       id="grid690" /></sodipodi:namedview><defs
     id="defs2"><clipPath
       id="clipPath44"><path
         d="M -15.16214,1027.0034 H 166.7745 v 295.3301 H -15.16214 Z"
         inkscape:connector-curvature="0"
         id="path46" /></clipPath><style
       type="text/css"
       id="style341">
*{stroke-linecap:butt;stroke-linejoin:round;}
  </style><path
       d="M 36 -70.985035  L 36 -43.063662  L 36.746488 -43.041834  L 37.492977 -43.025441  L 38.239465 -43.014614  L 38.985953 -43.009481  L 39.732441 -43.010168  L 40.47893 -43.0168  L 41.225418 -43.029497  L 41.971906 -43.048379  L 42.718395 -43.073559  L 43.464883 -43.105152  L 44.211371 -43.143265  L 44.95786 -43.188005  L 45.704348 -43.239473  L 46.450836 -43.297767  L 47.197324 -43.362982  L 47.943813 -43.435207  L 48.690301 -43.514528  L 49.436789 -43.601025  L 50.183278 -43.694775  L 50.929766 -43.795847  L 51.676254 -43.904309  L 52.422742 -44.020221  L 53.169231 -44.143636  L 53.915719 -44.274605  L 54.662207 -44.413171  L 55.408696 -44.559369  L 56.155184 -44.713229  L 56.901672 -44.874777  L 57.648161 -45.044027  L 58.394649 -45.220988  L 59.141137 -45.405663  L 59.887625 -45.598044  L 60.634114 -45.798117  L 61.380602 -46.00586  L 62.12709 -46.221238  L 62.873579 -46.444212  L 63.620067 -46.67473  L 64.366555 -46.912729  L 65.113043 -47.15814  L 65.859532 -47.410876  L 66.60602 -47.670845  L 67.352508 -47.937936  L 68.098997 -48.212031  L 68.845485 -48.492994  L 69.591973 -48.780676  L 70.338462 -49.074911  L 71.08495 -49.37552  L 71.831438 -49.682304  L 72.577926 -49.995047  L 73.324415 -50.313514  L 74.070903 -50.637449  L 74.817391 -50.966577  L 75.56388 -51.300601  L 76.310368 -51.639201  L 77.056856 -51.982035  L 77.803344 -52.328738  L 78.549833 -52.67892  L 79.296321 -53.032165  L 80.042809 -53.388021  L 80.789298 -53.745926  L 81.535786 -54.10534  L 82.282274 -54.466295  L 83.028763 -54.828657  L 83.775251 -55.192252  L 84.521739 -55.556898  L 85.268227 -55.922406  L 86.014716 -56.28858  L 86.761204 -56.65522  L 87.507692 -57.022121  L 88.254181 -57.389064  L 89.000669 -57.755824  L 89.747157 -58.12216  L 90.493645 -58.487818  L 91.240134 -58.852528  L 91.986622 -59.216003  L 92.73311 -59.577936  L 93.479599 -59.938003  L 94.226087 -60.295858  L 94.972575 -60.651132  L 95.719064 -61.003433  L 96.465552 -61.352346  L 97.21204 -61.697426  L 97.958528 -62.038195  L 98.705017 -62.374138  L 99.451505 -62.704685  L 100.197993 -63.029197  L 100.944482 -63.346924  L 101.69097 -63.656921  L 102.437458 -63.957817  L 103.183946 -64.246304  L 103.930435 -64.520339  L 104.676923 -64.78438  L 105.423411 -65.040099  L 106.1699 -65.288495  L 106.916388 -65.530292  L 107.662876 -65.766066  L 108.409365 -65.996296  L 109.155853 -66.221387  L 109.902341 -66.441696  L 110.648829 -66.657536  L 111.395318 -66.869188  L 112.141806 -67.076902  L 112.888294 -67.280909  L 113.634783 -67.481417  L 114.381271 -67.678618  L 115.127759 -67.87269  L 115.874247 -68.063797  L 116.620736 -68.252096  L 117.367224 -68.43773  L 118.113712 -68.620838  L 118.860201 -68.801552  L 119.606689 -68.979995  L 120.353177 -69.156289  L 121.099666 -69.33055  L 121.846154 -69.502889  L 122.592642 -69.673417  L 123.33913 -69.84224  L 124.085619 -70.009462  L 124.832107 -70.175187  L 125.578595 -70.339513  L 126.325084 -70.502542  L 127.071572 -70.664371  L 127.81806 -70.825096  L 128.564548 -70.984813  L 129.311037 -71.143616  L 130.057525 -71.301599  L 130.804013 -71.458855  L 131.550502 -71.615475  L 132.29699 -71.771549  L 133.043478 -71.927166  L 133.789967 -72.082415  L 134.536455 -72.237383  L 135.282943 -72.392154  L 136.029431 -72.546813  L 136.77592 -72.701443  L 137.522408 -72.856124  L 138.268896 -73.010936  L 139.015385 -73.165955  L 139.761873 -73.321257  L 140.508361 -73.476914  L 141.254849 -73.632997  L 142.001338 -73.789574  L 142.747826 -73.94671  L 143.494314 -74.104468  L 144.240803 -74.262908  L 144.987291 -74.422085  L 145.733779 -74.582053  L 146.480268 -74.742862  L 147.226756 -74.904558  L 147.973244 -75.067182  L 148.719732 -75.230774  L 149.466221 -75.395367  L 150.212709 -75.560991  L 150.959197 -75.727672  L 151.705686 -75.89543  L 152.452174 -76.064281  L 153.198662 -76.234236  L 153.945151 -76.4053  L 154.691639 -76.577474  L 155.438127 -76.750752  L 156.184615 -76.925122  L 156.931104 -77.100568  L 157.677592 -77.277065  L 158.42408 -77.454583  L 159.170569 -77.633085  L 159.917057 -77.812527  L 160.663545 -77.992857  L 161.410033 -78.174015  L 162.156522 -78.355935  L 162.90301 -78.53854  L 163.649498 -78.721746  L 164.395987 -78.905458  L 165.142475 -79.089574  L 165.888963 -79.273978  L 166.635452 -79.458546  L 167.38194 -79.643142  L 168.128428 -79.827616  L 168.874916 -80.011808  L 169.621405 -80.19554  L 170.367893 -80.378622  L 171.114381 -80.560849  L 171.86087 -80.741996  L 172.607358 -80.92182  L 173.353846 -81.100061  L 174.100334 -81.276433  L 174.846823 -81.450631  L 175.593311 -81.622323  L 176.339799 -81.79115  L 177.086288 -81.956724  L 177.832776 -82.118624  L 178.579264 -82.276398  L 179.325753 -82.429555  L 180.072241 -82.577567  L 180.818729 -82.719863  L 181.565217 -82.855829  L 182.311706 -82.984806  L 183.058194 -83.106088  L 183.804682 -83.218922  L 184.551171 -83.322506  L 185.297659 -83.415993  L 186.044147 -83.49849  L 186.790635 -83.569064  L 187.537124 -83.626747  L 188.283612 -83.670535  L 189.0301 -83.699396  L 189.776589 -83.712259  L 190.523077 -83.707992  L 191.269565 -83.685323  L 192.016054 -83.64252  L 192.762542 -83.575652  L 193.50903 -83.486379  L 194.255518 -83.377561  L 195.002007 -83.250555  L 195.748495 -83.106453  L 196.494983 -82.946265  L 197.241472 -82.770964  L 197.98796 -82.581504  L 198.734448 -82.378823  L 199.480936 -82.163836  L 200.227425 -81.937434  L 200.973913 -81.700477  L 201.720401 -81.453791  L 202.46689 -81.198164  L 203.213378 -80.934344  L 203.959866 -80.663039  L 204.706355 -80.384919  L 205.452843 -80.10061  L 206.199331 -79.810705  L 206.945819 -79.515757  L 207.692308 -79.216287  L 208.438796 -78.912781  L 209.185284 -78.605697  L 209.931773 -78.295463  L 210.678261 -77.982481  L 211.424749 -77.667128  L 212.171237 -77.349759  L 212.917726 -77.030708  L 213.664214 -76.710289  L 214.410702 -76.388798  L 215.157191 -76.066515  L 215.903679 -75.743702  L 216.650167 -75.420609  L 217.396656 -75.097472  L 218.143144 -74.774513  L 218.889632 -74.451945  L 219.63612 -74.129968  L 220.382609 -73.80877  L 221.129097 -73.488534  L 221.875585 -73.169429  L 222.622074 -72.851618  L 223.368562 -72.535256  L 224.11505 -72.220487  L 224.861538 -71.907452  L 225.608027 -71.596282  L 226.354515 -71.287101  L 227.101003 -70.980029  L 227.847492 -70.675177  L 228.59398 -70.372652  L 229.340468 -70.072554  L 230.086957 -69.774978  L 230.833445 -69.480014  L 231.579933 -69.187746  L 232.326421 -68.898253  L 233.07291 -68.611611  L 233.819398 -68.327889  L 234.565886 -68.047152  L 235.312375 -67.769462  L 236.058863 -67.494875  L 236.805351 -67.223444  L 237.551839 -66.955218  L 238.298328 -66.690241  L 239.044816 -66.428554  L 239.791304 -66.170195  L 240.537793 -65.915197  L 241.284281 -65.66359  L 242.030769 -65.415401  L 242.777258 -65.170655  L 243.523746 -64.92937  L 244.270234 -64.691565  L 245.016722 -64.457254  L 245.763211 -64.226449  L 246.509699 -63.999158  L 247.256187 -63.775387  L 248.002676 -63.555139  L 248.749164 -63.338416  L 249.495652 -63.125216  L 250.24214 -62.915535  L 250.988629 -62.709367  L 251.735117 -62.506703  L 252.481605 -62.307532  L 253.228094 -62.111843  L 253.974582 -61.919621  L 254.72107 -61.73085  L 255.467559 -61.54551  L 256.214047 -61.363584  L 256.960535 -61.185048  L 257.707023 -61.009881  L 258.453512 -60.838057  L 259.2 -60.669551  L 259.2 -94.575695  L 259.2 -94.575695  L 258.453512 -94.639749  L 257.707023 -94.703408  L 256.960535 -94.766614  L 256.214047 -94.829309  L 255.467559 -94.891432  L 254.72107 -94.952923  L 253.974582 -95.013721  L 253.228094 -95.073762  L 252.481605 -95.132985  L 251.735117 -95.191325  L 250.988629 -95.248718  L 250.24214 -95.305099  L 249.495652 -95.360403  L 248.749164 -95.414563  L 248.002676 -95.467513  L 247.256187 -95.519188  L 246.509699 -95.569521  L 245.763211 -95.618445  L 245.016722 -95.665893  L 244.270234 -95.7118  L 243.523746 -95.756099  L 242.777258 -95.798725  L 242.030769 -95.839612  L 241.284281 -95.878695  L 240.537793 -95.915912  L 239.791304 -95.951197  L 239.044816 -95.98449  L 238.298328 -96.015729  L 237.551839 -96.044854  L 236.805351 -96.071807  L 236.058863 -96.09653  L 235.312375 -96.118969  L 234.565886 -96.139069  L 233.819398 -96.156778  L 233.07291 -96.172048  L 232.326421 -96.184832  L 231.579933 -96.195083  L 230.833445 -96.202762  L 230.086957 -96.207828  L 229.340468 -96.210245  L 228.59398 -96.209982  L 227.847492 -96.207008  L 227.101003 -96.2013  L 226.354515 -96.192835  L 225.608027 -96.181598  L 224.861538 -96.167577  L 224.11505 -96.150764  L 223.368562 -96.131159  L 222.622074 -96.108765  L 221.875585 -96.083594  L 221.129097 -96.055661  L 220.382609 -96.024993  L 219.63612 -95.99162  L 218.889632 -95.955582  L 218.143144 -95.916928  L 217.396656 -95.875717  L 216.650167 -95.832017  L 215.903679 -95.785907  L 215.157191 -95.737479  L 214.410702 -95.686837  L 213.664214 -95.634098  L 212.917726 -95.579395  L 212.171237 -95.522877  L 211.424749 -95.464712  L 210.678261 -95.405083  L 209.931773 -95.344197  L 209.185284 -95.282282  L 208.438796 -95.219591  L 207.692308 -95.1564  L 206.945819 -95.093017  L 206.199331 -95.029775  L 205.452843 -94.967042  L 204.706355 -94.905218  L 203.959866 -94.84474  L 203.213378 -94.786079  L 202.46689 -94.729746  L 201.720401 -94.676289  L 200.973913 -94.626293  L 200.227425 -94.580381  L 199.480936 -94.539208  L 198.734448 -94.50346  L 197.98796 -94.473845  L 197.241472 -94.451088  L 196.494983 -94.435925  L 195.748495 -94.429089  L 195.002007 -94.431311  L 194.255518 -94.443314  L 193.50903 -94.465839  L 192.762542 -94.499741  L 192.016054 -94.546707  L 191.269565 -94.607643  L 190.523077 -94.680072  L 189.776589 -94.762757  L 189.0301 -94.854688  L 188.283612 -94.954908  L 187.537124 -95.06247  L 186.790635 -95.176436  L 186.044147 -95.295876  L 185.297659 -95.419881  L 184.551171 -95.547569  L 183.804682 -95.678088  L 183.058194 -95.810625  L 182.311706 -95.944409  L 181.565217 -96.078711  L 180.818729 -96.212848  L 180.072241 -96.346178  L 179.325753 -96.478104  L 178.579264 -96.608068  L 177.832776 -96.735554  L 177.086288 -96.860079  L 176.339799 -96.981198  L 175.593311 -97.098496  L 174.846823 -97.211587  L 174.100334 -97.320116  L 173.353846 -97.42375  L 172.607358 -97.52218  L 171.86087 -97.61512  L 171.114381 -97.702303  L 170.367893 -97.783481  L 169.621405 -97.85842  L 168.874916 -97.926906  L 168.128428 -97.988736  L 167.38194 -98.043721  L 166.635452 -98.091686  L 165.888963 -98.132465  L 165.142475 -98.165905  L 164.395987 -98.191862  L 163.649498 -98.210202  L 162.90301 -98.220799  L 162.156522 -98.223537  L 161.410033 -98.218305  L 160.663545 -98.205003  L 159.917057 -98.183536  L 159.170569 -98.153817  L 158.42408 -98.115765  L 157.677592 -98.069306  L 156.931104 -98.014372  L 156.184615 -97.950901  L 155.438127 -97.878835  L 154.691639 -97.798126  L 153.945151 -97.708728  L 153.198662 -97.6106  L 152.452174 -97.50371  L 151.705686 -97.388029  L 150.959197 -97.263532  L 150.212709 -97.130201  L 149.466221 -96.988024  L 148.719732 -96.836991  L 147.973244 -96.677101  L 147.226756 -96.508355  L 146.480268 -96.33076  L 145.733779 -96.144329  L 144.987291 -95.949078  L 144.240803 -95.745032  L 143.494314 -95.532216  L 142.747826 -95.310665  L 142.001338 -95.080415  L 141.254849 -94.841511  L 140.508361 -94.594  L 139.761873 -94.337937  L 139.015385 -94.07338  L 138.268896 -93.800394  L 137.522408 -93.519048  L 136.77592 -93.229419  L 136.029431 -92.931587  L 135.282943 -92.625639  L 134.536455 -92.311667  L 133.789967 -91.989769  L 133.043478 -91.660048  L 132.29699 -91.322614  L 131.550502 -90.977584  L 130.804013 -90.625078  L 130.057525 -90.265224  L 129.311037 -89.898157  L 128.564548 -89.524016  L 127.81806 -89.142949  L 127.071572 -88.75511  L 126.325084 -88.360658  L 125.578595 -87.95976  L 124.832107 -87.552591  L 124.085619 -87.139332  L 123.33913 -86.720172  L 122.592642 -86.295308  L 121.846154 -85.864943  L 121.099666 -85.429291  L 120.353177 -84.988573  L 119.606689 -84.543018  L 118.860201 -84.092867  L 118.113712 -83.638367  L 117.367224 -83.179779  L 116.620736 -82.717371  L 115.874247 -82.251425  L 115.127759 -81.782233  L 114.381271 -81.310101  L 113.634783 -80.835348  L 112.888294 -80.358306  L 112.141806 -79.879325  L 111.395318 -79.398768  L 110.648829 -78.917017  L 109.902341 -78.434472  L 109.155853 -77.951554  L 108.409365 -77.468704  L 107.662876 -76.986387  L 106.916388 -76.505093  L 106.1699 -76.025341  L 105.423411 -75.547682  L 104.676923 -75.072709  L 103.930435 -74.60108  L 103.183946 -74.133589  L 102.437458 -73.671577  L 101.69097 -73.215057  L 100.944482 -72.763757  L 100.197993 -72.317778  L 99.451505 -71.8773  L 98.705017 -71.442538  L 97.958528 -71.013728  L 97.21204 -70.591121  L 96.465552 -70.174984  L 95.719064 -69.765593  L 94.972575 -69.363242  L 94.226087 -68.968236  L 93.479599 -68.580895  L 92.73311 -68.201557  L 91.986622 -67.830574  L 91.240134 -67.468317  L 90.493645 -67.115176  L 89.747157 -66.771558  L 89.000669 -66.437893  L 88.254181 -66.114629  L 87.507692 -65.80224  L 86.761204 -65.501221  L 86.014716 -65.212101  L 85.268227 -64.935441  L 84.521739 -64.671848  L 83.775251 -64.421992  L 83.028763 -64.18664  L 82.282274 -63.966714  L 81.535786 -63.763448  L 80.789298 -63.578929  L 80.042809 -63.418368  L 79.296321 -63.278418  L 78.549833 -63.155773  L 77.803344 -63.048984  L 77.056856 -62.95706  L 76.310368 -62.879225  L 75.56388 -62.814838  L 74.817391 -62.763346  L 74.070903 -62.724263  L 73.324415 -62.69715  L 72.577926 -62.681611  L 71.831438 -62.67728  L 71.08495 -62.68382  L 70.338462 -62.700914  L 69.591973 -62.728266  L 68.845485 -62.765595  L 68.098997 -62.812633  L 67.352508 -62.869124  L 66.60602 -62.934823  L 65.859532 -63.009493  L 65.113043 -63.092903  L 64.366555 -63.184828  L 63.620067 -63.285049  L 62.873579 -63.39335  L 62.12709 -63.509521  L 61.380602 -63.633352  L 60.634114 -63.764636  L 59.887625 -63.90317  L 59.141137 -64.04875  L 58.394649 -64.201175  L 57.648161 -64.360244  L 56.901672 -64.525758  L 56.155184 -64.697517  L 55.408696 -64.875324  L 54.662207 -65.058981  L 53.915719 -65.248289  L 53.169231 -65.443053  L 52.422742 -65.643076  L 51.676254 -65.848161  L 50.929766 -66.058112  L 50.183278 -66.272735  L 49.436789 -66.491835  L 48.690301 -66.715218  L 47.943813 -66.942691  L 47.197324 -67.17406  L 46.450836 -67.409136  L 45.704348 -67.647725  L 44.95786 -67.889641  L 44.211371 -68.134693  L 43.464883 -68.382696  L 42.718395 -68.633463  L 41.971906 -68.886811  L 41.225418 -69.142557  L 40.47893 -69.400522  L 39.732441 -69.660526  L 38.985953 -69.922392  L 38.239465 -70.185948  L 37.492977 -70.451019  L 36.746488 -70.717437  L 36 -70.985035  z "
       id="m2a50cb97cd"
       style="stroke:#d9d9d9;" /><path
       d="M 0 0  L 0 3.5  "
       id="m9d0783ef9a"
       style="stroke:#000000;stroke-width:0.8;" /><path
       d="M 31.78125 66.40625  Q 24.171875 66.40625 20.328125 58.90625  Q 16.5 51.421875 16.5 36.375  Q 16.5 21.390625 20.328125 13.890625  Q 24.171875 6.390625 31.78125 6.390625  Q 39.453125 6.390625 43.28125 13.890625  Q 47.125 21.390625 47.125 36.375  Q 47.125 51.421875 43.28125 58.90625  Q 39.453125 66.40625 31.78125 66.40625  z M 31.78125 74.21875  Q 44.046875 74.21875 50.515625 64.515625  Q 56.984375 54.828125 56.984375 36.375  Q 56.984375 17.96875 50.515625 8.265625  Q 44.046875 -1.421875 31.78125 -1.421875  Q 19.53125 -1.421875 13.0625 8.265625  Q 6.59375 17.96875 6.59375 36.375  Q 6.59375 54.828125 13.0625 64.515625  Q 19.53125 74.21875 31.78125 74.21875  z "
       id="DejaVuSans-30" /><path
       d="M 19.1875 8.296875  L 53.609375 8.296875  L 53.609375 0  L 7.328125 0  L 7.328125 8.296875  Q 12.9375 14.109375 22.625 23.890625  Q 32.328125 33.6875 34.8125 36.53125  Q 39.546875 41.84375 41.421875 45.53125  Q 43.3125 49.21875 43.3125 52.78125  Q 43.3125 58.59375 39.234375 62.25  Q 35.15625 65.921875 28.609375 65.921875  Q 23.96875 65.921875 18.8125 64.3125  Q 13.671875 62.703125 7.8125 59.421875  L 7.8125 69.390625  Q 13.765625 71.78125 18.9375 73  Q 24.125 74.21875 28.421875 74.21875  Q 39.75 74.21875 46.484375 68.546875  Q 53.21875 62.890625 53.21875 53.421875  Q 53.21875 48.921875 51.53125 44.890625  Q 49.859375 40.875 45.40625 35.40625  Q 44.1875 33.984375 37.640625 27.21875  Q 31.109375 20.453125 19.1875 8.296875  z "
       id="DejaVuSans-32" /><path
       d="M 37.796875 64.3125  L 12.890625 25.390625  L 37.796875 25.390625  z M 35.203125 72.90625  L 47.609375 72.90625  L 47.609375 25.390625  L 58.015625 25.390625  L 58.015625 17.1875  L 47.609375 17.1875  L 47.609375 0  L 37.796875 0  L 37.796875 17.1875  L 4.890625 17.1875  L 4.890625 26.703125  z "
       id="DejaVuSans-34" /><path
       d="M 33.015625 40.375  Q 26.375 40.375 22.484375 35.828125  Q 18.609375 31.296875 18.609375 23.390625  Q 18.609375 15.53125 22.484375 10.953125  Q 26.375 6.390625 33.015625 6.390625  Q 39.65625 6.390625 43.53125 10.953125  Q 47.40625 15.53125 47.40625 23.390625  Q 47.40625 31.296875 43.53125 35.828125  Q 39.65625 40.375 33.015625 40.375  z M 52.59375 71.296875  L 52.59375 62.3125  Q 48.875 64.0625 45.09375 64.984375  Q 41.3125 65.921875 37.59375 65.921875  Q 27.828125 65.921875 22.671875 59.328125  Q 17.53125 52.734375 16.796875 39.40625  Q 19.671875 43.65625 24.015625 45.921875  Q 28.375 48.1875 33.59375 48.1875  Q 44.578125 48.1875 50.953125 41.515625  Q 57.328125 34.859375 57.328125 23.390625  Q 57.328125 12.15625 50.6875 5.359375  Q 44.046875 -1.421875 33.015625 -1.421875  Q 20.359375 -1.421875 13.671875 8.265625  Q 6.984375 17.96875 6.984375 36.375  Q 6.984375 53.65625 15.1875 63.9375  Q 23.390625 74.21875 37.203125 74.21875  Q 40.921875 74.21875 44.703125 73.484375  Q 48.484375 72.75 52.59375 71.296875  z "
       id="DejaVuSans-36" /><path
       d="M 31.78125 34.625  Q 24.75 34.625 20.71875 30.859375  Q 16.703125 27.09375 16.703125 20.515625  Q 16.703125 13.921875 20.71875 10.15625  Q 24.75 6.390625 31.78125 6.390625  Q 38.8125 6.390625 42.859375 10.171875  Q 46.921875 13.96875 46.921875 20.515625  Q 46.921875 27.09375 42.890625 30.859375  Q 38.875 34.625 31.78125 34.625  z M 21.921875 38.8125  Q 15.578125 40.375 12.03125 44.71875  Q 8.5 49.078125 8.5 55.328125  Q 8.5 64.0625 14.71875 69.140625  Q 20.953125 74.21875 31.78125 74.21875  Q 42.671875 74.21875 48.875 69.140625  Q 55.078125 64.0625 55.078125 55.328125  Q 55.078125 49.078125 51.53125 44.71875  Q 48 40.375 41.703125 38.8125  Q 48.828125 37.15625 52.796875 32.3125  Q 56.78125 27.484375 56.78125 20.515625  Q 56.78125 9.90625 50.3125 4.234375  Q 43.84375 -1.421875 31.78125 -1.421875  Q 19.734375 -1.421875 13.25 4.234375  Q 6.78125 9.90625 6.78125 20.515625  Q 6.78125 27.484375 10.78125 32.3125  Q 14.796875 37.15625 21.921875 38.8125  z M 18.3125 54.390625  Q 18.3125 48.734375 21.84375 45.5625  Q 25.390625 42.390625 31.78125 42.390625  Q 38.140625 42.390625 41.71875 45.5625  Q 45.3125 48.734375 45.3125 54.390625  Q 45.3125 60.0625 41.71875 63.234375  Q 38.140625 66.40625 31.78125 66.40625  Q 25.390625 66.40625 21.84375 63.234375  Q 18.3125 60.0625 18.3125 54.390625  z "
       id="DejaVuSans-38" /><path
       d="M 12.40625 8.296875  L 28.515625 8.296875  L 28.515625 63.921875  L 10.984375 60.40625  L 10.984375 69.390625  L 28.421875 72.90625  L 38.28125 72.90625  L 38.28125 8.296875  L 54.390625 8.296875  L 54.390625 0  L 12.40625 0  z "
       id="DejaVuSans-31" /><path
       d="M 0 0  L -3.5 0  "
       id="m4d1265c81a"
       style="stroke:#000000;stroke-width:0.8;" /><path
       d="M 10.59375 35.5  L 73.1875 35.5  L 73.1875 27.203125  L 10.59375 27.203125  z "
       id="DejaVuSans-2212" /><path
       d="M 0 3  C 0.795609 3 1.55874 2.683901 2.12132 2.12132  C 2.683901 1.55874 3 0.795609 3 0  C 3 -0.795609 2.683901 -1.55874 2.12132 -2.12132  C 1.55874 -2.683901 0.795609 -3 0 -3  C -0.795609 -3 -1.55874 -2.683901 -2.12132 -2.12132  C -2.683901 -1.55874 -3 -0.795609 -3 0  C -3 0.795609 -2.683901 1.55874 -2.12132 2.12132  C -1.55874 2.683901 -0.795609 3 0 3  z "
       id="mcc797c2c39"
       style="stroke:#000000;" /><clipPath
       id="pe51cf80760"><rect
         height="108.72"
         width="223.2"
         x="36"
         y="17.28"
         id="rect520" /></clipPath></defs><g
     inkscape:label="Layer 1"
     inkscape:groupmode="layer"
     id="layer1"><g
       transform="matrix(0.77860203,0,0,0.77860203,484.77087,0.4126757)"
       id="spline"><text
         xml:space="preserve"
         style="font-style:normal;font-weight:normal;font-size:22.6546px;line-height:1.25;font-family:sans-serif;fill:#000000;fill-opacity:1;stroke:none;stroke-width:0.339818"
         x="65.222214"
         y="312.05341"
         id="text3972-2"><tspan
           sodipodi:role="line"
           id="tspan3970-1"
           style="font-size:22.6546px;stroke-width:0.339818"
           x="65.222214"
           y="312.05341">Spline Interpolation</tspan></text><path
         style="fill:none;stroke:#dadada;stroke-width:5.13741;stroke-linecap:butt;stroke-linejoin:miter;stroke-dasharray:none;stroke-opacity:1"
         d="M 64.636236,276.74854 H 696.28942"
         id="x-axis-spline"
         transform="translate(1.2575958e-5)" /><path
         d="m 91.451822,144.742 c 0,0 40.755518,-12.9025 81.101408,-39.3219 35.7637,-23.418878 57.43585,-33.670288 80.2822,-17.203325 22.54346,16.248635 36.68838,103.035735 79.46299,116.327275 36.24987,11.26408 40.96031,-52.8388 81.92062,-38.50269 40.23133,14.08096 41.16509,94.41351 78.64379,95.84712 40.23375,1.53898 46.89669,-69.83989 81.10141,-116.32727 34.5036,-46.89361 81.9206,-18.02255 81.9206,-18.02255"
         style="fill:none;fill-rule:evenodd;stroke:#000000;stroke-width:3.85306;stroke-linecap:butt;stroke-linejoin:miter;stroke-miterlimit:4;stroke-dasharray:none;stroke-opacity:1"
         id="path2172" /><path
         d="m 158.23892,245.44675 a 18.297987,18.297987 0 1 1 -36.59597,0 18.297987,18.297987 0 1 1 36.59597,0 z"
         transform="matrix(0.4253193,0,0,0.4253193,31.932247,40.348309)"
         style="fill:#ff0000;fill-opacity:1;fill-rule:evenodd;stroke:none;stroke-width:4;stroke-linecap:butt;stroke-linejoin:miter;stroke-miterlimit:4;stroke-dasharray:none;stroke-opacity:1"
         id="path3146" /><path
         d="m 158.23892,245.44675 a 18.297987,18.297987 0 1 1 -36.59597,0 18.297987,18.297987 0 1 1 36.59597,0 z"
         transform="matrix(0.4253193,0,0,0.4253193,112.77634,1.1947771)"
         style="fill:#ff0000;fill-opacity:1;fill-rule:evenodd;stroke:none;stroke-width:4;stroke-linecap:butt;stroke-linejoin:miter;stroke-miterlimit:4;stroke-dasharray:none;stroke-opacity:1"
         id="path4117" /><path
         d="m 158.23892,245.44675 a 18.297987,18.297987 0 1 1 -36.59597,0 18.297987,18.297987 0 1 1 36.59597,0 z"
         transform="matrix(0.4253193,0,0,0.4253193,192.99309,-16.408439)"
         style="fill:#ff0000;fill-opacity:1;fill-rule:evenodd;stroke:none;stroke-width:4;stroke-linecap:butt;stroke-linejoin:miter;stroke-miterlimit:4;stroke-dasharray:none;stroke-opacity:1"
         id="path4119" /><path
         d="m 158.23892,245.44675 a 18.297987,18.297987 0 1 1 -36.59597,0 18.297987,18.297987 0 1 1 36.59597,0 z"
         transform="matrix(0.4253193,0,0,0.4253193,273.161,100.26663)"
         style="fill:#ff0000;fill-opacity:1;fill-rule:evenodd;stroke:none;stroke-width:4;stroke-linecap:butt;stroke-linejoin:miter;stroke-miterlimit:4;stroke-dasharray:none;stroke-opacity:1"
         id="path4121" /><path
         d="m 158.23892,245.44675 a 18.297987,18.297987 0 1 1 -36.59597,0 18.297987,18.297987 0 1 1 36.59597,0 z"
         transform="matrix(0.4253193,0,0,0.4253193,355.13031,61.801208)"
         style="fill:#ff0000;fill-opacity:1;fill-rule:evenodd;stroke:none;stroke-width:4;stroke-linecap:butt;stroke-linejoin:miter;stroke-miterlimit:4;stroke-dasharray:none;stroke-opacity:1"
         id="path4123" /><path
         d="m 158.23892,245.44675 a 18.297987,18.297987 0 1 1 -36.59597,0 18.297987,18.297987 0 1 1 36.59597,0 z"
         transform="matrix(0.4253193,0,0,0.4253193,433.43988,157.49873)"
         style="fill:#ff0000;fill-opacity:1;fill-rule:evenodd;stroke:none;stroke-width:4;stroke-linecap:butt;stroke-linejoin:miter;stroke-miterlimit:4;stroke-dasharray:none;stroke-opacity:1"
         id="path4125" /><path
         d="m 158.23892,245.44675 a 18.297987,18.297987 0 1 1 -36.59597,0 18.297987,18.297987 0 1 1 36.59597,0 z"
         transform="matrix(0.4253193,0,0,0.4253193,514.36346,41.280351)"
         style="fill:#ff0000;fill-opacity:1;fill-rule:evenodd;stroke:none;stroke-width:4;stroke-linecap:butt;stroke-linejoin:miter;stroke-miterlimit:4;stroke-dasharray:none;stroke-opacity:1"
         id="path4127" /><path
         d="m 158.23892,245.44675 a 18.297987,18.297987 0 1 1 -36.59597,0 18.297987,18.297987 0 1 1 36.59597,0 z"
         transform="matrix(0.4253193,0,0,0.4253193,596.36727,23.14492)"
         style="fill:#ff0000;fill-opacity:1;fill-rule:evenodd;stroke:none;stroke-width:4;stroke-linecap:butt;stroke-linejoin:miter;stroke-miterlimit:4;stroke-dasharray:none;stroke-opacity:1"
         id="path4129" /></g><g
       id="polynomial"
       transform="matrix(2.200927,0,0,-2.200927,57.27367,410.99667)"><g
         id="g18" /><g
         id="g20" /><g
         id="g22"><g
           id="g24" /></g><g
         id="g26" /><g
         id="g28" /><g
         id="g30" /><g
         id="g32"><g
           transform="translate(15.161,-1026.991)"
           id="g34"><g
             id="g36"><g
               id="g38"><g
                 id="g40"><g
                   clip-path="url(#clipPath44)"
                   id="g42"><g
                     id="g48"><path
                       d="m 0,1891.8051 0.30382,-39.9803 0.30383,-38.808 0.30382,-36.1697 0.30383,-35.2169 0.30382,-33.0708 0.30385,-32.3563 0.30383,-31.0649 0.30382,-29.0802 0.30383,-28.5801 0.30382,-27.0028 0.30383,-25.1107 0.30385,-24.1634 0.30382,-23.6076 0.30383,-21.9537 0.30382,-20.6411 0.30383,-20.1728 0.30383,-18.5532 0.30384,-17.7593 0.30383,-17.373 0.30382,-15.711 0.30383,-15.6503 0.30382,-14.0439 0.30383,-13.3426 0.30385,-12.779 0.30382,-11.8846 0.30383,-11.4637 0.30382,-10.6884 0.30383,-9.5664 0.30384,-9.5055 0.30383,-8.3623 0.30383,-8.0792 0.30382,-7.5472 0.30383,-6.9624 0.30383,-6.5152 0.30382,-5.5731 0.30385,-5.5996 0.30382,-4.9962 0.30383,-4.4722 0.30382,-4.2977 0.30383,-3.3792 0.30384,-3.5831 0.30383,-2.9718 0.30383,-2.7681 0.30382,-2.3023 0.30383,-2.1435 0.30384,-1.5507 0.30381,-1.6169 0.30385,-1.2226 0.30382,-0.9447 0.30383,-0.5584 0.30384,-0.6377 0.30381,-0.2065 0.30384,-0.2566 0.30383,0.032 0.30383,0.2223 0.30382,0.2726 0.30383,0.4896 0.30384,0.5345 0.30381,0.696 0.30385,0.8494 0.30382,0.9818 0.30383,1.0162 0.30384,1.0162 0.30381,1.2967 0.30385,1.204 0.30382,1.212 0.30383,1.4793 0.30384,1.3311 0.30381,1.3628 0.30384,1.4238 0.30383,1.5401 0.30383,1.4528 0.30382,1.5121 0.30383,1.393 0.30384,1.5426 0.30381,1.5708 0.30385,1.3922 0.30382,1.564 0.30383,1.3446 0.30384,1.3898 0.30381,1.3946 0.30384,1.4735 0.30383,1.4493 0.30383,1.3359 0.30384,1.221 0.30381,1.1977 0.30384,1.2189 0.30381,1.1088 0.30385,1.0675 0.30382,1.0945 0.30383,0.9458 0.30384,0.9577 0.30381,0.868 0.30384,0.8958 0.30383,0.692 0.30383,0.7616 0.30384,0.6743 0.30381,0.6081 0.30384,0.598 0.30381,0.5121 0.30385,0.3649 0.30384,0.4102 0.30381,0.334 0.30384,0.2701 0.30381,0.1782 0.30384,0.1598 0.30383,0.085 0.30383,0.042 0.30384,-0.011 0.30381,-0.1172 0.30384,-0.1008 0.30381,-0.2009 0.30385,-0.2434 0.30384,-0.2266 0.30381,-0.3596 0.30384,-0.3853 0.30381,-0.457 0.30384,-0.3999 0.30385,-0.529 0.30381,-0.5697 0.30384,-0.6264 0.30381,-0.6507 0.30384,-0.7137 0.30383,-0.741 0.30383,-0.7449 0.30384,-0.8048 0.30381,-0.873 0.30384,-0.8688 0.30381,-0.8711 0.30385,-0.9429 0.30384,-0.9492 0.30381,-0.9967 0.30384,-1.0267 0.30381,-1.0082 0.30384,-1.0503 0.30385,-1.1197 0.30381,-1.0686 0.30384,-1.1043 0.30381,-1.1455 0.30384,-1.1372 0.30381,-1.135 0.30385,-1.1342 0.30384,-1.1932 0.30381,-1.1617 0.30384,-1.1771 0.30381,-1.1982 0.30384,-1.1694 0.30385,-1.1683 0.30381,-1.207 0.30384,-1.1956 0.30381,-1.1639 0.30384,-1.1731 0.30383,-1.166 0.30383,-1.1651 0.30384,-1.1482 0.30381,-1.1295 0.30384,-1.1149 0.30383,-1.1365 0.30382,-1.1032 0.30385,-1.0666 0.30381,-1.0683 0.30384,-1.0307 0.30381,-1.0438 0.30384,-0.999 0.30383,-0.9921 0.30383,-0.9511 0.30384,-0.9576 0.30381,-0.9331 0.30384,-0.8766 0.30383,-0.8826 0.30382,-0.8448 0.30385,-0.8088 0.30381,-0.7998 0.30384,-0.7501 0.30383,-0.727 0.30382,-0.7124 0.30383,-0.6739 0.30383,-0.6404 0.30384,-0.6114 0.30381,-0.572 0.30384,-0.5654 0.30383,-0.5166 0.30383,-0.4878 0.30384,-0.4533 0.30381,-0.4279 0.30384,-0.3878 0.30383,-0.3593 0.30382,-0.3323 0.30385,-0.2829 0.30381,-0.2613 0.30384,-0.2296 0.30383,-0.1938 0.30382,-0.1574 0.30383,-0.1436 0.30383,-0.097 0.30384,-0.063 0.30381,-0.046 h 0.30384 l 0.30383,0.028 0.30382,0.051 0.30385,0.083 0.30381,0.1079 0.30384,0.1419 0.30383,0.1654 0.30382,0.1979 0.30383,0.2238 0.30383,0.2508 0.30384,0.2736 0.30383,0.2989 0.30382,0.3228 0.30383,0.3445 0.30382,0.369 0.30385,0.3863 0.30381,0.4113 0.30384,0.4303 0.30383,0.4457 0.30382,0.4713 0.30383,0.4809 0.30383,0.5008 0.30384,0.5121 0.30383,0.5297 0.30382,0.5461 0.30383,0.5513 0.30382,0.5657 0.30385,0.5738 0.30383,0.5841 0.30382,0.5934 0.30383,0.5964 0.30382,0.6059 0.30383,0.6071 0.30384,0.612 0.30383,0.6135 0.30383,0.6145 0.30382,0.6142 0.30383,0.6147 0.30382,0.6103 0.30385,0.6075 0.30383,0.6017 0.30382,0.597 0.30383,0.5907 0.30382,0.5802 0.30385,0.5732 0.30383,0.562 0.30382,0.5488 0.30383,0.5364 0.30382,0.5242 0.30383,0.5078 0.30384,0.4887 0.30383,0.4758 0.30383,0.4561 0.30382,0.4368 0.30383,0.4166 0.30382,0.3945 0.30385,0.3719 0.30383,0.3493 0.30382,0.324 0.30383,0.299 0.30382,0.2724 0.30383,0.2447 0.30385,0.2171 0.30382,0.1876 0.30383,0.158 0.30382,0.1278 0.30383,0.095 0.30382,0.063 0.30385,0.03 h 0.30383 l 0.30382,-0.037 0.30383,-0.073 0.30382,-0.1086 0.30383,-0.1449 0.30385,-0.1807 0.30382,-0.2188 0.30383,-0.2565 0.30382,-0.2944 0.30383,-0.333 0.30383,-0.3719 0.30384,-0.4115 0.30383,-0.4507 0.30382,-0.4903 0.30383,-0.5307 0.30382,-0.5707 0.30383,-0.6103 0.30385,-0.6511 0.30382,-0.6912 0.30383,-0.7315 0.30382,-0.7718 0.30383,-0.8116 0.30384,-0.852 0.30383,-0.8912 0.30383,-0.9308 0.30382,-0.9699 0.30383,-1.0088 0.30383,-1.0472 0.30382,-1.0855 0.30385,-1.1225 0.30382,-1.1598 0.30383,-1.1961 0.30382,-1.2319 0.30383,-1.2667 0.30383,-1.3012 0.30384,-1.3346 0.30383,-1.3676 0.30382,-1.3992 0.30383,-1.4301 0.30384,-1.4601 0.30383,-1.4887 0.30383,-1.5169 0.30382,-1.5433 0.30383,-1.5689 0.30383,-1.5933 0.30382,-1.6161 0.30385,-1.6379 0.30382,-1.6582 0.30383,-1.6772 0.30384,-1.6946 0.30381,-1.7106 0.30383,-1.7251 0.30384,-1.7378 0.30383,-1.7491 0.30382,-1.7586 0.30383,-1.7663 0.30384,-1.7725 0.30381,-1.7766 0.30385,-1.7791 0.30382,-1.7796 0.30383,-1.7782 0.30383,-1.7749 0.30382,-1.7695 0.30384,-1.7622 0.30383,-1.7528 0.30383,-1.7414 0.30384,-1.7276 0.30381,-1.712 0.30383,-1.6941 0.30384,-1.6739 0.30383,-1.6516 0.30382,-1.627 0.30383,-1.6002 0.30384,-1.5709 0.30383,-1.5396 0.30383,-1.5058 0.30382,-1.4697 0.30383,-1.4312 0.30383,-1.3905 0.30384,-1.3473 0.30383,-1.3018 0.30382,-1.2538 0.30383,-1.2036 0.30384,-1.1509 0.30383,-1.096 0.30383,-1.0385 0.30382,-0.9787 0.30383,-0.9167 0.30383,-0.8522 0.30384,-0.7855 0.30383,-0.7165 0.30382,-0.6452 0.30383,-0.5715 0.30384,-0.4959 0.30383,-0.4178 0.30383,-0.3377 0.30382,-0.2554 0.30383,-0.1712 0.30383,-0.085 h 0.30384 l 0.30383,0.094 0.30382,0.186 0.30383,0.2801 0.30383,0.3759 0.30384,0.4734 0.30381,0.5724 0.30384,0.6731 0.30385,0.7753 0.30381,0.8787 0.30384,0.9836 0.30382,1.0898 0.30383,1.1968 0.30383,1.3051 0.30383,1.4143 0.30384,1.5243 0.30381,1.6349 0.30384,1.7462 0.30385,1.858 0.30381,1.97 0.30384,2.0823 0.30381,2.1947 0.30384,2.307 0.30383,2.419 0.30383,2.5308 0.30384,2.6419 0.30381,2.7524 0.30384,2.8621 0.30383,2.9706 0.30383,3.0781 0.30384,3.184 0.30381,3.2884 0.30384,3.391 0.30383,3.4916 0.30383,3.5899 0.30384,3.686 0.30381,3.7791 0.30384,3.8697 0.30383,3.957 0.30383,4.0408 0.30382,4.1213 0.30383,4.1977 0.30385,4.27 0.30382,4.3379 0.30383,4.4012 0.30382,4.4595 0.30383,4.5124 0.30385,4.5599 0.30382,4.6015 0.30383,4.6369 0.30382,4.6658 0.30383,4.6875 0.30384,4.7028 0.30383,4.7095 0.30383,4.7096 0.30382,4.7002 0.30383,4.6832 0.30382,4.6562 0.30385,4.6209 0.30383,4.5746 0.30382,4.5193 0.30383,4.4522 0.30382,4.3751 0.30383,4.2857 0.30385,4.1851 0.30382,4.0712 0.30383,3.9455 0.30382,3.8055 0.30383,3.6526 0.30384,3.4846 0.30383,3.3025 0.30383,3.1045 0.30382,2.8909 0.30383,2.6609 0.30382,2.414 0.30383,2.1498 0.30385,1.8672 0.30382,1.5662 0.30383,1.2463 0.30382,0.906 0.30383,0.5457 0.30384,0.1643 0.30383,-0.2388 0.30383,-0.6642 0.30382,-1.1126 0.30383,-1.5845 0.30384,-2.0809 0.30381,-2.6021 0.30385,-3.1489 0.30382,-3.7227 0.30383,-4.3228 0.30382,-4.9517 0.30383,-5.608 0.30384,-6.2953 0.30383,-7.011 0.30383,-7.7594 0.30382,-8.5378 0.30383,-9.3512 0.30384,-10.1956 0.30381,-11.0751 0.30385,-11.9896 0.30382,-12.9417 0.30383,-13.9279 0.30384,-14.9546 0.30381,-16.0169 0.30384,-17.122 0.30383,-18.2672 0.30383,-19.4509 0.30382,-20.6814 0.30383,-21.9511 0.30384,-23.2704 0.30381,-24.62906 0.30385,-26.04079 0.30382,-27.49356 0.30383,-29.00119 0.30384,-30.5521 0.30382,-32.16188 0.30384,-33.81527 0.30382,-35.5288 0.30383,-37.28906 0.30384,-39.11415 0.30381,-40.98656 0.30384,-42.92439 0.30383,-44.91289 0.30383,-46.97259 0.30382,-49.08368 0.30383,-51.26115 0.30384,-53.50051 0.30381,-55.81409 0.30385,-58.17942 0.30382,-60.62888 0.30383,-63.13283 0.30384,-65.7205 L 151.61086,0"
                       inkscape:connector-curvature="0"
                       id="path50"
                       style="fill:none;stroke:#000000;stroke-width:1.36306;stroke-linecap:butt;stroke-linejoin:miter;stroke-miterlimit:10;stroke-dasharray:none;stroke-opacity:1" /></g><g
                     id="g52" /></g></g><g
                 id="g54"><path
                   d="m 15.04805,1171.5811 c 0,1.1005 -0.89207,1.9925 -1.99255,1.9925 -1.10047,0 -1.99256,-0.892 -1.99256,-1.9925 0,-1.1005 0.89209,-1.9926 1.99256,-1.9926 1.10048,0 1.99255,0.8921 1.99255,1.9926 z"
                   inkscape:connector-curvature="0"
                   id="path56"
                   style="fill:#ff0000;fill-opacity:1;fill-rule:nonzero;stroke:#ff0000;stroke-width:0.3985;stroke-linecap:butt;stroke-linejoin:miter;stroke-miterlimit:10;stroke-dasharray:none;stroke-opacity:1" /><path
                   d="m 28.10356,1198.0441 c 0,1.1005 -0.89209,1.9925 -1.99255,1.9925 -1.10048,0 -1.99256,-0.892 -1.99256,-1.9925 0,-1.1005 0.89208,-1.9926 1.99256,-1.9926 1.10046,0 1.99255,0.8921 1.99255,1.9926 z"
                   inkscape:connector-curvature="0"
                   id="path58"
                   style="fill:#ff0000;fill-opacity:1;fill-rule:nonzero;stroke:#ff0000;stroke-width:0.3985;stroke-linecap:butt;stroke-linejoin:miter;stroke-miterlimit:10;stroke-dasharray:none;stroke-opacity:1" /><path
                   d="m 42.00136,1198.9262 c 0,1.1005 -0.89209,1.9926 -1.99256,1.9926 -1.10047,0 -1.99255,-0.8921 -1.99255,-1.9926 0,-1.1005 0.89208,-1.9925 1.99255,-1.9925 1.10047,0 1.99256,0.892 1.99256,1.9925 z"
                   inkscape:connector-curvature="0"
                   id="path60"
                   style="fill:#ff0000;fill-opacity:1;fill-rule:nonzero;stroke:#ff0000;stroke-width:0.3985;stroke-linecap:butt;stroke-linejoin:miter;stroke-miterlimit:10;stroke-dasharray:none;stroke-opacity:1" /><path
                   d="m 65.58551,1146.8823 c 0,1.1005 -0.89209,1.9926 -1.99255,1.9926 -1.10048,0 -1.99256,-0.8921 -1.99256,-1.9926 0,-1.1005 0.89208,-1.9926 1.99256,-1.9926 1.10046,0 1.99255,0.8921 1.99255,1.9926 z"
                   inkscape:connector-curvature="0"
                   id="path62"
                   style="fill:#ff0000;fill-opacity:1;fill-rule:nonzero;stroke:#ff0000;stroke-width:0.3985;stroke-linecap:butt;stroke-linejoin:miter;stroke-miterlimit:10;stroke-dasharray:none;stroke-opacity:1" /><path
                   d="m 78.21988,1168.9348 c 0,1.1005 -0.89209,1.9926 -1.99255,1.9926 -1.10048,0 -1.99256,-0.8921 -1.99256,-1.9926 0,-1.1005 0.89208,-1.9925 1.99256,-1.9925 1.10046,0 1.99255,0.892 1.99255,1.9925 z"
                   inkscape:connector-curvature="0"
                   id="path64"
                   style="fill:#ff0000;fill-opacity:1;fill-rule:nonzero;stroke:#ff0000;stroke-width:0.3985;stroke-linecap:butt;stroke-linejoin:miter;stroke-miterlimit:10;stroke-dasharray:none;stroke-opacity:1" /><path
                   d="m 104.3309,1090.4279 c 0,1.1005 -0.89209,1.9926 -1.99255,1.9926 -1.10048,0 -1.99255,-0.8921 -1.99255,-1.9926 0,-1.1004 0.89207,-1.9925 1.99255,-1.9925 1.10046,0 1.99255,0.8921 1.99255,1.9925 z"
                   inkscape:connector-curvature="0"
                   id="path66"
                   style="fill:#ff0000;fill-opacity:1;fill-rule:nonzero;stroke:#ff0000;stroke-width:0.3985;stroke-linecap:butt;stroke-linejoin:miter;stroke-miterlimit:10;stroke-dasharray:none;stroke-opacity:1" /><path
                   d="m 128.75732,1198.0441 c 0,1.1005 -0.89207,1.9925 -1.99255,1.9925 -1.10047,0 -1.99255,-0.892 -1.99255,-1.9925 0,-1.1005 0.89208,-1.9926 1.99255,-1.9926 1.10048,0 1.99255,0.8921 1.99255,1.9926 z"
                   inkscape:connector-curvature="0"
                   id="path68"
                   style="fill:#ff0000;fill-opacity:1;fill-rule:nonzero;stroke:#ff0000;stroke-width:0.3985;stroke-linecap:butt;stroke-linejoin:miter;stroke-miterlimit:10;stroke-dasharray:none;stroke-opacity:1" /><path
                   d="m 143.49742,1198.9262 c 0,1.1005 -0.89207,1.9926 -1.99255,1.9926 -1.10047,0 -1.99256,-0.8921 -1.99256,-1.9926 0,-1.1005 0.89209,-1.9925 1.99256,-1.9925 1.10048,0 1.99255,0.892 1.99255,1.9925 z"
                   inkscape:connector-curvature="0"
                   id="path70"
                   style="fill:#ff0000;fill-opacity:1;fill-rule:nonzero;stroke:#ff0000;stroke-width:0.3985;stroke-linecap:butt;stroke-linejoin:miter;stroke-miterlimit:10;stroke-dasharray:none;stroke-opacity:1" /><g
                   id="g72" /></g></g></g><g
             transform="translate(-15.161,1026.991)"
             id="g74" /></g></g><g
         id="g76" /><path
         style="fill:none;stroke:#dadada;stroke-width:5.13741;stroke-linecap:butt;stroke-linejoin:miter;stroke-dasharray:none;stroke-opacity:1"
         d="M -546.05299,277.66002 H -17.39665"
         id="x-axis-poly"
         transform="matrix(0.35376095,0,0,-0.35376095,194.23507,186.55048)" /><text
         xml:space="preserve"
         style="font-style:normal;font-weight:normal;font-size:17.6389px;line-height:1.25;font-family:sans-serif;fill:#000000;fill-opacity:1;stroke:none;stroke-width:0.264583"
         x="58.903229"
         y="248.38707"
         id="text3972"
         transform="matrix(0.45435401,0,0,-0.45435401,-26.022521,186.73798)"><tspan
           sodipodi:role="line"
           id="tspan3970"
           style="font-size:17.6389px;stroke-width:0.264583"
           x="58.903229"
           y="248.38707">Polynomial Interpolation</tspan></text></g><g
       id="figure_1"
       transform="matrix(1.3975806,0,0,1.2497312,1060.5548,65.438705)"><g
         id="patch_1"><path
           d="M 0,144 H 288 V 0 H 0 Z"
           style="fill:#ffffff"
           id="path345" /></g><g
         id="axes_1"><g
           id="patch_2"><path
             d="M 36,126 H 259.2 V 17.28 H 36 Z"
             style="fill:#ffffff"
             id="path348" /></g><g
           id="PolyCollection_1"><defs
             id="defs352"><path
               d="m 36,-70.985035 v 27.921373 l 0.746488,0.02183 0.746489,0.01639 0.746488,0.01083 0.746488,0.0051 0.746488,-6.87e-4 0.746489,-0.0066 0.746488,-0.0127 0.746488,-0.01888 0.746489,-0.02518 0.746488,-0.03159 0.746488,-0.03811 0.746489,-0.04474 0.746488,-0.05147 0.746488,-0.05829 0.746488,-0.06522 0.746489,-0.07222 0.746488,-0.07932 0.746488,-0.0865 0.746489,-0.09375 0.746488,-0.101072 0.746488,-0.108462 0.746488,-0.115912 0.746489,-0.123415 0.746488,-0.130969 0.746488,-0.138566 0.746489,-0.146198 0.746488,-0.15386 0.746488,-0.161548 0.746489,-0.16925 0.746488,-0.176961 0.746488,-0.184675 0.746488,-0.192381 0.746489,-0.200073 0.746488,-0.207743 0.746488,-0.215378 0.746489,-0.222974 0.746488,-0.230518 0.746488,-0.237999 0.746488,-0.245411 0.746489,-0.252736 0.746488,-0.259969 0.746488,-0.267091 0.746489,-0.274095 0.746488,-0.280963 0.746488,-0.287682 0.746489,-0.294235 0.746488,-0.300609 0.746488,-0.306784 0.746488,-0.312743 0.746489,-0.318467 0.746488,-0.323935 0.746488,-0.329128 0.746489,-0.334024 0.746488,-0.3386 0.746488,-0.342834 0.746488,-0.346703 0.746489,-0.350182 0.746488,-0.353245 0.746488,-0.355856 0.746489,-0.357905 0.746488,-0.359414 0.746488,-0.360955 0.746489,-0.362362 0.746488,-0.363595 0.746488,-0.364646 0.746488,-0.365508 0.746489,-0.366174 0.746488,-0.36664 0.746488,-0.366901 0.746489,-0.366943 0.746488,-0.36676 0.746488,-0.366336 0.746488,-0.365658 0.746489,-0.36471 0.746488,-0.363475 0.746488,-0.361933 0.746489,-0.360067 0.746488,-0.357855 0.746488,-0.355274 0.746489,-0.352301 0.746488,-0.348913 0.746488,-0.34508 0.746488,-0.340769 0.746489,-0.335943 0.746488,-0.330547 0.746485,-0.324512 0.74649,-0.317727 0.74649,-0.309997 0.74649,-0.300896 0.74649,-0.288487 0.74649,-0.274035 0.74648,-0.264041 0.74649,-0.255719 0.74649,-0.248396 0.74649,-0.241797 0.74649,-0.235774 0.74648,-0.23023 0.74649,-0.225091 0.74649,-0.220309 0.74649,-0.21584 0.74649,-0.211652 0.74649,-0.207714 0.74648,-0.204007 0.74649,-0.200508 0.74649,-0.197201 0.74649,-0.194072 0.74649,-0.191107 0.74649,-0.188299 0.74648,-0.185634 0.74649,-0.183108 0.74649,-0.180714 0.74649,-0.178443 0.74649,-0.176294 0.74649,-0.174261 0.74648,-0.172339 0.74649,-0.170528 0.74649,-0.168823 0.74649,-0.167222 0.74649,-0.165725 0.74649,-0.164326 0.74648,-0.163029 0.74649,-0.161829 0.74649,-0.160725 0.74649,-0.159717 0.74649,-0.158803 0.74648,-0.157983 0.74649,-0.157256 0.74649,-0.15662 0.74649,-0.156074 0.74649,-0.155617 0.74649,-0.155249 0.74648,-0.154968 0.74649,-0.154771 0.74649,-0.154659 0.74649,-0.15463 0.74649,-0.154681 0.74649,-0.154812 0.74648,-0.155019 0.74649,-0.155302 0.74649,-0.155657 0.74649,-0.156083 0.74649,-0.156577 0.74649,-0.157136 0.74648,-0.157758 0.74649,-0.15844 0.74649,-0.159177 0.74649,-0.159968 0.74649,-0.160809 0.74649,-0.161696 0.74648,-0.162624 0.74649,-0.163592 0.74649,-0.164593 0.74649,-0.165624 0.74649,-0.166681 0.74649,-0.167758 0.74648,-0.168851 0.74649,-0.169955 0.74649,-0.171064 0.74649,-0.172174 0.74649,-0.173278 0.74648,-0.17437 0.74649,-0.175446 0.74649,-0.176497 0.74649,-0.177518 0.74649,-0.178502 0.74649,-0.179442 0.74648,-0.18033 0.74649,-0.181158 0.74649,-0.18192 0.74649,-0.182605 0.74649,-0.183206 0.74649,-0.183712 0.74648,-0.184116 0.74649,-0.184404 0.74649,-0.184568 0.74649,-0.184596 0.74649,-0.184474 0.74649,-0.184192 0.74648,-0.183732 0.74649,-0.183082 0.74649,-0.182227 0.74649,-0.181147 0.74649,-0.179824 0.74649,-0.178241 0.74648,-0.176372 0.74649,-0.174198 0.74649,-0.171692 0.74649,-0.168827 0.74649,-0.165574 0.74649,-0.1619 0.74648,-0.157774 0.74649,-0.153157 0.74649,-0.148012 0.74649,-0.142296 0.74649,-0.135966 0.74649,-0.128977 0.74648,-0.121282 0.74649,-0.112834 0.74649,-0.103584 0.74649,-0.09349 0.74649,-0.0825 0.74648,-0.07057 0.74649,-0.05768 0.74649,-0.04379 0.74649,-0.02886 0.74649,-0.01286 0.74649,0.0043 0.74648,0.02267 0.74649,0.0428 0.74649,0.06687 0.74649,0.08927 0.74649,0.108818 0.74649,0.127006 0.74648,0.144102 0.74649,0.160188 0.74649,0.175301 0.74649,0.18946 0.74649,0.202681 0.74649,0.214987 0.74648,0.226402 0.74649,0.236957 0.74649,0.246686 0.74649,0.255627 0.74649,0.26382 0.74649,0.271305 0.74648,0.27812 0.74649,0.284309 0.74649,0.289905 0.74649,0.294948 0.74649,0.29947 0.74649,0.303506 0.74648,0.307084 0.74649,0.310234 0.74649,0.312982 0.74649,0.315353 0.74649,0.317369 0.74649,0.319051 0.74648,0.320419 0.74649,0.321491 0.74649,0.322283 0.74649,0.322813 0.74649,0.323093 0.74649,0.323137 0.74648,0.322959 0.74649,0.322568 0.74649,0.321977 0.74649,0.321198 0.74649,0.320236 0.74648,0.319105 0.74649,0.317811 0.74649,0.316362 0.74649,0.314769 0.74649,0.313035 0.74649,0.31117 0.74648,0.309181 0.74649,0.307072 0.74649,0.304852 0.74649,0.302525 0.74649,0.300098 0.74649,0.297576 0.74648,0.294964 0.74649,0.292268 0.74649,0.289493 0.74649,0.286642 0.74649,0.283722 0.74649,0.280737 0.74648,0.27769 0.74649,0.274587 0.74649,0.271431 0.74649,0.268226 0.74649,0.264977 0.74649,0.261687 0.74648,0.258359 0.74649,0.254998 0.74649,0.251607 0.74649,0.248189 0.74649,0.244746 0.74649,0.241285 0.74648,0.237805 0.74649,0.234311 0.74649,0.230805 0.74649,0.227291 0.74649,0.223771 0.74649,0.220248 0.74648,0.216723 0.74649,0.2132 0.74649,0.209681 0.74649,0.206168 0.74649,0.202664 0.74648,0.199171 0.74649,0.195689 0.74649,0.192222 0.74649,0.188771 0.74649,0.18534 0.74649,0.181926 0.74648,0.178536 0.74649,0.175167 0.74649,0.171824 0.74649,0.168506 v -33.906144 0 l -0.74649,-0.06405 -0.74649,-0.06366 -0.74649,-0.06321 -0.74648,-0.06269 -0.74649,-0.06212 -0.74649,-0.06149 -0.74649,-0.0608 -0.74649,-0.06004 -0.74649,-0.05922 -0.74648,-0.05834 -0.74649,-0.05739 -0.74649,-0.05638 -0.74649,-0.0553 -0.74649,-0.05416 -0.74648,-0.05295 -0.74649,-0.05168 -0.74649,-0.05033 -0.74649,-0.04892 -0.74649,-0.04745 -0.74649,-0.04591 -0.74648,-0.0443 -0.74649,-0.04263 -0.74649,-0.04089 -0.74649,-0.03908 -0.74649,-0.03722 -0.74649,-0.03528 -0.74648,-0.03329 -0.74649,-0.03124 -0.74649,-0.02913 -0.74649,-0.02695 -0.74649,-0.02472 -0.74649,-0.02244 -0.74648,-0.0201 -0.74649,-0.01771 -0.74649,-0.01527 -0.74649,-0.01278 -0.74649,-0.01025 -0.74649,-0.0077 -0.74648,-0.0051 -0.74649,-0.0024 -0.74649,2.63e-4 -0.74649,0.003 -0.74649,0.0057 -0.74649,0.0085 -0.74648,0.01124 -0.74649,0.01402 -0.74649,0.01681 -0.74649,0.0196 -0.74649,0.02239 -0.74649,0.02517 -0.74648,0.02793 -0.74649,0.03067 -0.74649,0.03337 -0.74649,0.03604 -0.74649,0.03865 -0.74648,0.04121 -0.74649,0.0437 -0.74649,0.04611 -0.74649,0.04843 -0.74649,0.05064 -0.74649,0.05274 -0.74648,0.0547 -0.74649,0.05652 -0.74649,0.05816 -0.74649,0.05963 -0.74649,0.06089 -0.74649,0.06191 -0.74648,0.06269 -0.74649,0.06319 -0.74649,0.06338 -0.74649,0.06324 -0.74649,0.06273 -0.74649,0.06182 -0.74648,0.06048 -0.74649,0.05866 -0.74649,0.05633 -0.74649,0.05346 -0.74649,0.05 -0.74649,0.04591 -0.74648,0.04117 -0.74649,0.03575 -0.74649,0.02962 -0.74649,0.02276 -0.74649,0.01516 -0.74649,0.0068 -0.74648,-0.0022 -0.74649,-0.012 -0.74649,-0.02253 -0.74649,-0.0339 -0.74649,-0.04697 -0.74649,-0.06094 -0.74648,-0.07243 -0.74649,-0.08268 -0.74649,-0.09193 -0.74649,-0.10022 -0.74649,-0.107562 -0.74649,-0.113966 -0.74648,-0.11944 -0.74649,-0.124005 -0.74649,-0.127688 -0.74649,-0.130519 -0.74649,-0.132537 -0.74648,-0.133784 -0.74649,-0.134302 -0.74649,-0.134137 -0.74649,-0.13333 -0.74649,-0.131926 -0.74649,-0.129964 -0.74648,-0.127486 -0.74649,-0.124525 -0.74649,-0.121119 -0.74649,-0.117298 -0.74649,-0.113091 -0.74649,-0.108529 -0.74648,-0.103634 -0.74649,-0.09843 -0.74649,-0.09294 -0.74649,-0.08718 -0.74649,-0.08118 -0.74649,-0.07494 -0.74648,-0.06849 -0.74649,-0.06183 -0.74649,-0.05499 -0.74649,-0.04796 -0.74649,-0.04078 -0.74649,-0.03344 -0.74648,-0.02596 -0.74649,-0.01834 -0.74649,-0.0106 -0.74649,-0.0027 -0.74649,0.0052 -0.74649,0.0133 -0.74648,0.02147 -0.74649,0.02972 -0.74649,0.03805 -0.74649,0.04646 -0.74649,0.05493 -0.74649,0.06347 -0.74648,0.07207 -0.74649,0.08071 -0.74649,0.0894 -0.74649,0.09813 -0.74649,0.10689 -0.74648,0.115681 -0.74649,0.124497 -0.74649,0.133331 -0.74649,0.142177 -0.74649,0.151033 -0.74649,0.15989 -0.74648,0.168746 -0.74649,0.177595 -0.74649,0.186431 -0.74649,0.195251 -0.74649,0.204046 -0.74649,0.212816 -0.74648,0.221551 -0.74649,0.23025 -0.74649,0.238904 -0.74649,0.247511 -0.74649,0.256063 -0.74649,0.264557 -0.74648,0.272986 -0.74649,0.281346 -0.74649,0.289629 -0.74649,0.297832 -0.74649,0.305948 -0.74649,0.313972 -0.74648,0.321898 -0.74649,0.329721 -0.74649,0.337434 -0.74649,0.34503 -0.74649,0.352506 -0.74649,0.359854 -0.74648,0.367067 -0.74649,0.374141 -0.74649,0.381067 -0.74649,0.387839 -0.74649,0.394452 -0.74648,0.400898 -0.74649,0.407169 -0.74649,0.413259 -0.74649,0.41916 -0.74649,0.424864 -0.74649,0.430365 -0.74648,0.435652 -0.74649,0.440718 -0.74649,0.445555 -0.74649,0.450151 -0.74649,0.4545 -0.74649,0.458588 -0.74648,0.462408 -0.74649,0.465946 -0.74649,0.469192 -0.74649,0.472132 -0.74649,0.474753 -0.74649,0.477042 -0.74648,0.478981 -0.74649,0.480557 -0.74649,0.481751 -0.74649,0.482545 -0.74649,0.482918 -0.74649,0.48285 -0.74648,0.482317 -0.74649,0.481294 -0.74649,0.479752 -0.74649,0.477659 -0.74649,0.474973 -0.74648,0.471629 -0.74649,0.467491 -0.74649,0.462012 -0.74649,0.45652 -0.74649,0.4513 -0.74649,0.445979 -0.746485,0.440478 -0.746488,0.434762 -0.746489,0.42881 -0.746488,0.422607 -0.746488,0.416137 -0.746488,0.409391 -0.746489,0.402351 -0.746488,0.395006 -0.746488,0.387341 -0.746489,0.379338 -0.746488,0.370983 -0.746488,0.362257 -0.746489,0.353141 -0.746488,0.343618 -0.746488,0.333665 -0.746488,0.323264 -0.746489,0.312389 -0.746488,0.301019 -0.746488,0.28912 -0.746489,0.27666 -0.746488,0.263593 -0.746488,0.249856 -0.746488,0.235352 -0.746489,0.219926 -0.746488,0.203266 -0.746488,0.184519 -0.746489,0.160561 -0.746488,0.13995 -0.746488,0.122645 -0.746489,0.106789 -0.746488,0.09192 -0.746488,0.07784 -0.746488,0.06439 -0.746489,0.05149 -0.746488,0.03908 -0.746488,0.02711 -0.746489,0.01554 -0.746488,0.0043 -0.746488,-0.0065 -0.746488,-0.01709 -0.746489,-0.02735 -0.746488,-0.03733 -0.746488,-0.04704 -0.746489,-0.05649 -0.746488,-0.0657 -0.746488,-0.07467 -0.746489,-0.08341 -0.746488,-0.09193 -0.746488,-0.100221 -0.746488,-0.108301 -0.746489,-0.116171 -0.746488,-0.123831 -0.746488,-0.131284 -0.746489,-0.138534 -0.746488,-0.14558 -0.746488,-0.152425 -0.746488,-0.159069 -0.746489,-0.165514 -0.746488,-0.171759 -0.746488,-0.177807 -0.746489,-0.183657 -0.746488,-0.189308 -0.746488,-0.194764 -0.746489,-0.200023 -0.746488,-0.205085 -0.746488,-0.209951 -0.746488,-0.214623 -0.746489,-0.2191 -0.746488,-0.223383 -0.746488,-0.227473 -0.746489,-0.231369 -0.746488,-0.235076 -0.746488,-0.238589 -0.746488,-0.241916 -0.746489,-0.245052 -0.746488,-0.248003 -0.746488,-0.250767 -0.746489,-0.253348 -0.746488,-0.255746 -0.746488,-0.257965 -0.746489,-0.260004 -0.746488,-0.261866 -0.746488,-0.263556 -0.746488,-0.265071 -0.746489,-0.266418 z"
               id="path547"
               style="stroke:#d9d9d9" /></defs><g
             clip-path="url(#pe51cf80760)"
             id="g356"><use
               style="fill:#d9d9d9;stroke:#d9d9d9"
               x="0"
               xlink:href="#m2a50cb97cd"
               y="144"
               id="use354" /></g></g><g
           id="line2d_10"><path
             clip-path="url(#pe51cf80760)"
             d="m 36,86.975652 5.971906,1.056753 5.225418,0.699074 4.47893,0.392286 4.47893,0.170862 4.47893,-0.076 3.732441,-0.267402 3.732442,-0.463553 3.732441,-0.66746 3.732442,-0.877927 3.732441,-1.097572 3.732442,-1.352357 4.478929,-1.904532 5.225418,-2.477566 9.70435,-4.924951 6.71839,-3.271773 7.46489,-3.398263 6.71839,-2.796473 5.97191,-2.23968 5.9719,-1.988011 5.97191,-1.728357 5.97191,-1.469202 5.9719,-1.215962 5.97191,-0.971033 5.9719,-0.734288 5.97191,-0.503837 5.97191,-0.276825 5.9719,-0.04996 5.97191,0.181315 5.22542,0.366604 5.9719,0.651531 6.7184,0.95452 8.21137,1.40239 11.19732,2.162029 21.64817,4.228642 9.70434,1.654682 1.49298,0.234021 v 0"
             style="fill:none;stroke:#1f77b4;stroke-width:1.5;stroke-linecap:square"
             id="path491" /></g><g
           id="line2d_11"><defs
             id="defs495"><path
               d="M 0,3 C 0.795609,3 1.55874,2.683901 2.12132,2.12132 2.683901,1.55874 3,0.795609 3,0 3,-0.795609 2.683901,-1.55874 2.12132,-2.12132 1.55874,-2.683901 0.795609,-3 0,-3 -0.795609,-3 -1.55874,-2.683901 -2.12132,-2.12132 -2.683901,-1.55874 -3,-0.795609 -3,0 -3,0.795609 -2.683901,1.55874 -2.12132,2.12132 -1.55874,2.683901 -0.795609,3 0,3 Z"
               id="path649"
               style="stroke:#000000" /></defs><g
             clip-path="url(#pe51cf80760)"
             id="g503"
             style="fill:#ff0000;stroke:#ff0000"><use
               style="stroke:#ff0000;fill:#ff0000"
               x="80.639999"
               xlink:href="#mcc797c2c39"
               y="89.760002"
               id="use497" /><use
               style="stroke:#ff0000;fill:#ff0000"
               x="102.96"
               xlink:href="#mcc797c2c39"
               y="71.639999"
               id="use499" /><use
               style="stroke:#ff0000;fill:#ff0000"
               x="192.24001"
               xlink:href="#mcc797c2c39"
               y="53.52"
               id="use501" /></g></g></g><text
         xml:space="preserve"
         style="font-style:normal;font-weight:normal;font-size:13.3467px;line-height:1.25;font-family:sans-serif;fill:#000000;fill-opacity:1;stroke:none;stroke-width:0.200201;stroke-linecap:butt;stroke-linejoin:round"
         x="38.96439"
         y="133.43454"
         id="text3972-2-3"
         transform="scale(0.94562702,1.0574994)"><tspan
           sodipodi:role="line"
           id="tspan3970-1-0"
           style="font-size:13.3467px;stroke-width:0.200201"
           x="38.96439"
           y="133.43454">Gaussian process</tspan></text><path
         style="fill:none;stroke:#dadada;stroke-width:3.78332166;stroke-linecap:butt;stroke-linejoin:miter;stroke-dasharray:none;stroke-opacity:1"
         d="M 35.385039,121.10328 H 260.17565"
         id="x-axis-spline-5" /></g></g></svg>
