<?xml version="1.0" encoding="UTF-8" standalone="no"?>
<!-- Created with Inkscape (http://www.inkscape.org/) -->
<svg
   xmlns:svg="http://www.w3.org/2000/svg"
   xmlns="http://www.w3.org/2000/svg"
   version="1.0"
   width="590"
   height="194"
   id="svg2">
  <defs
     id="defs4" />
  <path
     d="M 229 34 A 8 8 0 1 1  213,34 A 8 8 0 1 1  229 34 z"
     transform="translate(-47,-22)"
     style="fill:#ff0000;fill-opacity:1;stroke:none;stroke-width:4;stroke-miterlimit:4;stroke-dasharray:none;stroke-dashoffset:0;stroke-opacity:1"
     id="kreis" />
  <path
     d="M 229 34 A 8 8 0 1 1  213,34 A 8 8 0 1 1  229 34 z"
     transform="translate(-127,-4)"
     style="fill:#ff0000;fill-opacity:1;stroke:none;stroke-width:4;stroke-miterlimit:4;stroke-dasharray:none;stroke-dashoffset:0;stroke-opacity:1"
     id="path3136" />
  <path
     d="M 229 34 A 8 8 0 1 1  213,34 A 8 8 0 1 1  229 34 z"
     transform="translate(-208,35)"
     style="fill:#ff0000;fill-opacity:1;stroke:none;stroke-width:4;stroke-miterlimit:4;stroke-dasharray:none;stroke-dashoffset:0;stroke-opacity:1"
     id="path3138" />
  <path
     d="M 229 34 A 8 8 0 1 1  213,34 A 8 8 0 1 1  229 34 z"
     transform="translate(33,95)"
     style="fill:#ff0000;fill-opacity:1;stroke:none;stroke-width:4;stroke-miterlimit:4;stroke-dasharray:none;stroke-dashoffset:0;stroke-opacity:1"
     id="path3140" />
  <path
     d="M 229 34 A 8 8 0 1 1  213,34 A 8 8 0 1 1  229 34 z"
     transform="translate(115,56)"
     style="fill:#ff0000;fill-opacity:1;stroke:none;stroke-width:4;stroke-miterlimit:4;stroke-dasharray:none;stroke-dashoffset:0;stroke-opacity:1"
     id="path3142" />
  <path
     d="M 229 34 A 8 8 0 1 1  213,34 A 8 8 0 1 1  229 34 z"
     transform="translate(193,152)"
     style="fill:#ff0000;fill-opacity:1;stroke:none;stroke-width:4;stroke-miterlimit:4;stroke-dasharray:none;stroke-dashoffset:0;stroke-opacity:1"
     id="path3144" />
  <path
     d="M 229 34 A 8 8 0 1 1  213,34 A 8 8 0 1 1  229 34 z"
     transform="translate(274,36)"
     style="fill:#ff0000;fill-opacity:1;stroke:none;stroke-width:4;stroke-miterlimit:4;stroke-dasharray:none;stroke-dashoffset:0;stroke-opacity:1"
     id="path3147" />
  <path
     d="M 229 34 A 8 8 0 1 1  213,34 A 8 8 0 1 1  229 34 z"
     transform="translate(356,18)"
     style="fill:#ff0000;fill-opacity:1;stroke:none;stroke-width:4;stroke-miterlimit:4;stroke-dasharray:none;stroke-dashoffset:0;stroke-opacity:1"
     id="path3149" />
</svg>
