<svg width="1280" height="720" xmlns="http://www.w3.org/2000/svg" xmlns:xlink="http://www.w3.org/1999/xlink" overflow="hidden"><defs><clipPath id="clip0"><rect x="0" y="0" width="1280" height="720"/></clipPath><clipPath id="clip1"><rect x="69" y="83" width="114" height="202"/></clipPath><clipPath id="clip2"><rect x="182" y="83" width="109" height="202"/></clipPath><clipPath id="clip3"><rect x="290" y="83" width="103" height="202"/></clipPath><clipPath id="clip4"><rect x="392" y="83" width="110" height="202"/></clipPath><clipPath id="clip5"><rect x="69" y="121" width="114" height="203"/></clipPath><clipPath id="clip6"><rect x="69" y="159" width="114" height="203"/></clipPath><clipPath id="clip7"><rect x="69" y="198" width="114" height="202"/></clipPath><clipPath id="clip8"><rect x="69" y="236" width="114" height="203"/></clipPath><clipPath id="clip9"><rect x="793" y="12" width="120" height="203"/></clipPath><clipPath id="clip10"><rect x="911" y="12" width="93" height="203"/></clipPath><clipPath id="clip11"><rect x="1003" y="12" width="93" height="203"/></clipPath><clipPath id="clip12"><rect x="1095" y="12" width="131" height="203"/></clipPath><clipPath id="clip13"><rect x="793" y="51" width="120" height="202"/></clipPath><clipPath id="clip14"><rect x="793" y="89" width="120" height="203"/></clipPath><clipPath id="clip15"><rect x="793" y="128" width="120" height="202"/></clipPath><clipPath id="clip16"><rect x="793" y="166" width="120" height="203"/></clipPath><clipPath id="clip17"><rect x="793" y="204" width="120" height="203"/></clipPath><clipPath id="clip18"><rect x="793" y="243" width="120" height="202"/></clipPath><clipPath id="clip19"><rect x="403" y="396" width="114" height="202"/></clipPath><clipPath id="clip20"><rect x="516" y="396" width="109" height="202"/></clipPath><clipPath id="clip21"><rect x="624" y="396" width="103" height="202"/></clipPath><clipPath id="clip22"><rect x="726" y="396" width="110" height="202"/></clipPath><clipPath id="clip23"><rect x="403" y="434" width="114" height="203"/></clipPath><clipPath id="clip24"><rect x="403" y="472" width="114" height="203"/></clipPath><clipPath id="clip25"><rect x="403" y="511" width="114" height="202"/></clipPath><clipPath id="clip26"><rect x="403" y="549" width="114" height="203"/></clipPath></defs><g clip-path="url(#clip0)"><rect x="0" y="0" width="1280" height="720" fill="#FFFFFF"/><path d="M69.6836 164.626 182.773 164.626 182.773 203.026 69.6836 203.026Z" fill="#4472C4" fill-rule="evenodd"/><path d="M182.773 164.626 290.901 164.626 290.901 203.026 182.773 203.026Z" fill="#4472C4" fill-rule="evenodd"/><path d="M290.901 164.626 392.466 164.626 392.466 203.026 290.901 203.026Z" fill="#4472C4" fill-rule="evenodd"/><path d="M392.466 164.626 501.915 164.626 501.915 203.026 392.466 203.026Z" fill="#4472C4" fill-rule="evenodd"/><path d="M69.6836 203.026 182.773 203.026 182.773 241.426 69.6836 241.426Z" fill="#CFD5EA" fill-rule="evenodd"/><path d="M182.773 203.026 290.901 203.026 290.901 241.426 182.773 241.426Z" fill="#CFD5EA" fill-rule="evenodd"/><path d="M290.901 203.026 392.466 203.026 392.466 241.426 290.901 241.426Z" fill="#CFD5EA" fill-rule="evenodd"/><path d="M392.466 203.026 501.915 203.026 501.915 241.426 392.466 241.426Z" fill="#CFD5EA" fill-rule="evenodd"/><path d="M69.6836 241.426 182.773 241.426 182.773 279.826 69.6836 279.826Z" fill="#E9EBF5" fill-rule="evenodd"/><path d="M182.773 241.426 290.901 241.426 290.901 279.826 182.773 279.826Z" fill="#E9EBF5" fill-rule="evenodd"/><path d="M290.901 241.426 392.466 241.426 392.466 279.826 290.901 279.826Z" fill="#E9EBF5" fill-rule="evenodd"/><path d="M392.466 241.426 501.915 241.426 501.915 279.826 392.466 279.826Z" fill="#E9EBF5" fill-rule="evenodd"/><path d="M69.6836 279.826 182.773 279.826 182.773 318.226 69.6836 318.226Z" fill="#CFD5EA" fill-rule="evenodd"/><path d="M182.773 279.826 290.901 279.826 290.901 318.226 182.773 318.226Z" fill="#CFD5EA" fill-rule="evenodd"/><path d="M290.901 279.826 392.466 279.826 392.466 318.226 290.901 318.226Z" fill="#CFD5EA" fill-rule="evenodd"/><path d="M392.466 279.826 501.915 279.826 501.915 318.226 392.466 318.226Z" fill="#CFD5EA" fill-rule="evenodd"/><path d="M69.6836 318.226 182.773 318.226 182.773 356.626 69.6836 356.626Z" fill="#E9EBF5" fill-rule="evenodd"/><path d="M182.773 318.226 290.901 318.226 290.901 356.626 182.773 356.626Z" fill="#E9EBF5" fill-rule="evenodd"/><path d="M290.901 318.226 392.466 318.226 392.466 356.626 290.901 356.626Z" fill="#E9EBF5" fill-rule="evenodd"/><path d="M392.466 318.226 501.915 318.226 501.915 356.626 392.466 356.626Z" fill="#E9EBF5" fill-rule="evenodd"/><path d="M182.773 163.959 182.773 357.293" stroke="#FFFFFF" stroke-width="1.33333" stroke-linejoin="round" stroke-miterlimit="10" fill="none" fill-rule="evenodd"/><path d="M290.901 163.959 290.901 357.293" stroke="#FFFFFF" stroke-width="1.33333" stroke-linejoin="round" stroke-miterlimit="10" fill="none" fill-rule="evenodd"/><path d="M392.466 163.959 392.466 357.293" stroke="#FFFFFF" stroke-width="1.33333" stroke-linejoin="round" stroke-miterlimit="10" fill="none" fill-rule="evenodd"/><path d="M69.0169 203.026 502.582 203.026" stroke="#FFFFFF" stroke-width="4" stroke-linejoin="round" stroke-miterlimit="10" fill="none" fill-rule="evenodd"/><path d="M69.0169 241.426 502.582 241.426" stroke="#FFFFFF" stroke-width="1.33333" stroke-linejoin="round" stroke-miterlimit="10" fill="none" fill-rule="evenodd"/><path d="M69.0169 279.826 502.582 279.826" stroke="#FFFFFF" stroke-width="1.33333" stroke-linejoin="round" stroke-miterlimit="10" fill="none" fill-rule="evenodd"/><path d="M69.0169 318.226 502.582 318.226" stroke="#FFFFFF" stroke-width="1.33333" stroke-linejoin="round" stroke-miterlimit="10" fill="none" fill-rule="evenodd"/><path d="M69.6836 163.959 69.6836 357.293" stroke="#FFFFFF" stroke-width="1.33333" stroke-linejoin="round" stroke-miterlimit="10" fill="none" fill-rule="evenodd"/><path d="M501.915 163.959 501.915 357.293" stroke="#FFFFFF" stroke-width="1.33333" stroke-linejoin="round" stroke-miterlimit="10" fill="none" fill-rule="evenodd"/><path d="M69.0169 164.626 502.582 164.626" stroke="#FFFFFF" stroke-width="1.33333" stroke-linejoin="round" stroke-miterlimit="10" fill="none" fill-rule="evenodd"/><path d="M69.0169 356.626 502.582 356.626" stroke="#FFFFFF" stroke-width="1.33333" stroke-linejoin="round" stroke-miterlimit="10" fill="none" fill-rule="evenodd"/><g clip-path="url(#clip1)"><text fill="#FFFFFF" font-family="Calibri,Calibri_MSFontService,sans-serif" font-weight="700" font-size="24" transform="translate(79.2836 191)">t [s]</text></g><g clip-path="url(#clip2)"><text fill="#FFFFFF" font-family="Calibri,Calibri_MSFontService,sans-serif" font-weight="700" font-size="24" transform="translate(192.373 191)">a0</text></g><g clip-path="url(#clip3)"><text fill="#FFFFFF" font-family="Calibri,Calibri_MSFontService,sans-serif" font-weight="700" font-size="24" transform="translate(300.501 191)">…</text></g><g clip-path="url(#clip4)"><text fill="#FFFFFF" font-family="Calibri,Calibri_MSFontService,sans-serif" font-weight="700" font-size="24" transform="translate(402.066 191)">aN</text></g><g clip-path="url(#clip5)"><text font-family="Calibri,Calibri_MSFontService,sans-serif" font-weight="400" font-size="24" transform="translate(79.2836 230)">12.008</text></g><g clip-path="url(#clip6)"><text font-family="Calibri,Calibri_MSFontService,sans-serif" font-weight="400" font-size="24" transform="translate(79.2836 268)">13.002</text></g><g clip-path="url(#clip7)"><text font-family="Calibri,Calibri_MSFontService,sans-serif" font-weight="400" font-size="24" transform="translate(79.2836 307)">…</text></g><g clip-path="url(#clip8)"><text font-family="Calibri,Calibri_MSFontService,sans-serif" font-weight="400" font-size="24" transform="translate(79.2836 345)">14.997</text></g><path d="M793.507 94.4918 912 94.4918 912 132.892 793.507 132.892Z" fill="#ED7D31" fill-rule="evenodd"/><path d="M912 94.4918 1003.83 94.4918 1003.83 132.892 912 132.892Z" fill="#ED7D31" fill-rule="evenodd"/><path d="M1003.83 94.4918 1095.08 94.4918 1095.08 132.892 1003.83 132.892Z" fill="#ED7D31" fill-rule="evenodd"/><path d="M1095.08 94.4918 1225.74 94.4918 1225.74 132.892 1095.08 132.892Z" fill="#ED7D31" fill-rule="evenodd"/><path d="M793.507 132.892 912 132.892 912 171.292 793.507 171.292Z" fill="#F8D7CD" fill-rule="evenodd"/><path d="M912 132.892 1003.83 132.892 1003.83 171.292 912 171.292Z" fill="#F8D7CD" fill-rule="evenodd"/><path d="M1003.83 132.892 1095.08 132.892 1095.08 171.292 1003.83 171.292Z" fill="#F8D7CD" fill-rule="evenodd"/><path d="M1095.08 132.892 1225.74 132.892 1225.74 171.292 1095.08 171.292Z" fill="#F8D7CD" fill-rule="evenodd"/><path d="M793.507 171.292 912 171.292 912 209.692 793.507 209.692Z" fill="#FCECE8" fill-rule="evenodd"/><path d="M912 171.292 1003.83 171.292 1003.83 209.692 912 209.692Z" fill="#FCECE8" fill-rule="evenodd"/><path d="M1003.83 171.292 1095.08 171.292 1095.08 209.692 1003.83 209.692Z" fill="#FCECE8" fill-rule="evenodd"/><path d="M1095.08 171.292 1225.74 171.292 1225.74 209.692 1095.08 209.692Z" fill="#FCECE8" fill-rule="evenodd"/><path d="M793.507 209.692 912 209.692 912 248.092 793.507 248.092Z" fill="#F8D7CD" fill-rule="evenodd"/><path d="M912 209.692 1003.83 209.692 1003.83 248.092 912 248.092Z" fill="#F8D7CD" fill-rule="evenodd"/><path d="M1003.83 209.692 1095.08 209.692 1095.08 248.092 1003.83 248.092Z" fill="#F8D7CD" fill-rule="evenodd"/><path d="M1095.08 209.692 1225.74 209.692 1225.74 248.092 1095.08 248.092Z" fill="#F8D7CD" fill-rule="evenodd"/><path d="M793.507 248.092 912 248.092 912 286.492 793.507 286.492Z" fill="#FCECE8" fill-rule="evenodd"/><path d="M912 248.092 1003.83 248.092 1003.83 286.492 912 286.492Z" fill="#FCECE8" fill-rule="evenodd"/><path d="M1003.83 248.092 1095.08 248.092 1095.08 286.492 1003.83 286.492Z" fill="#FCECE8" fill-rule="evenodd"/><path d="M1095.08 248.092 1225.74 248.092 1225.74 286.492 1095.08 286.492Z" fill="#FCECE8" fill-rule="evenodd"/><path d="M793.507 286.492 912 286.492 912 324.892 793.507 324.892Z" fill="#F8D7CD" fill-rule="evenodd"/><path d="M912 286.492 1003.83 286.492 1003.83 324.892 912 324.892Z" fill="#F8D7CD" fill-rule="evenodd"/><path d="M1003.83 286.492 1095.08 286.492 1095.08 324.892 1003.83 324.892Z" fill="#F8D7CD" fill-rule="evenodd"/><path d="M1095.08 286.492 1225.74 286.492 1225.74 324.892 1095.08 324.892Z" fill="#F8D7CD" fill-rule="evenodd"/><path d="M793.507 324.892 912 324.892 912 363.292 793.507 363.292Z" fill="#FCECE8" fill-rule="evenodd"/><path d="M912 324.892 1003.83 324.892 1003.83 363.292 912 363.292Z" fill="#FCECE8" fill-rule="evenodd"/><path d="M1003.83 324.892 1095.08 324.892 1095.08 363.292 1003.83 363.292Z" fill="#FCECE8" fill-rule="evenodd"/><path d="M1095.08 324.892 1225.74 324.892 1225.74 363.292 1095.08 363.292Z" fill="#FCECE8" fill-rule="evenodd"/><path d="M912 93.8251 912 363.958" stroke="#FFFFFF" stroke-width="1.33333" stroke-linejoin="round" stroke-miterlimit="10" fill="none" fill-rule="evenodd"/><path d="M1003.83 93.8251 1003.83 363.958" stroke="#FFFFFF" stroke-width="1.33333" stroke-linejoin="round" stroke-miterlimit="10" fill="none" fill-rule="evenodd"/><path d="M1095.08 93.8251 1095.08 363.958" stroke="#FFFFFF" stroke-width="1.33333" stroke-linejoin="round" stroke-miterlimit="10" fill="none" fill-rule="evenodd"/><path d="M792.841 132.892 1226.41 132.892" stroke="#FFFFFF" stroke-width="4" stroke-linejoin="round" stroke-miterlimit="10" fill="none" fill-rule="evenodd"/><path d="M792.841 171.292 1226.41 171.292" stroke="#FFFFFF" stroke-width="1.33333" stroke-linejoin="round" stroke-miterlimit="10" fill="none" fill-rule="evenodd"/><path d="M792.841 209.692 1226.41 209.692" stroke="#FFFFFF" stroke-width="1.33333" stroke-linejoin="round" stroke-miterlimit="10" fill="none" fill-rule="evenodd"/><path d="M792.841 248.092 1226.41 248.092" stroke="#FFFFFF" stroke-width="1.33333" stroke-linejoin="round" stroke-miterlimit="10" fill="none" fill-rule="evenodd"/><path d="M792.841 286.492 1226.41 286.492" stroke="#FFFFFF" stroke-width="1.33333" stroke-linejoin="round" stroke-miterlimit="10" fill="none" fill-rule="evenodd"/><path d="M792.841 324.892 1226.41 324.892" stroke="#FFFFFF" stroke-width="1.33333" stroke-linejoin="round" stroke-miterlimit="10" fill="none" fill-rule="evenodd"/><path d="M793.507 93.8251 793.507 363.958" stroke="#FFFFFF" stroke-width="1.33333" stroke-linejoin="round" stroke-miterlimit="10" fill="none" fill-rule="evenodd"/><path d="M1225.74 93.8251 1225.74 363.958" stroke="#FFFFFF" stroke-width="1.33333" stroke-linejoin="round" stroke-miterlimit="10" fill="none" fill-rule="evenodd"/><path d="M792.841 94.4918 1226.41 94.4918" stroke="#FFFFFF" stroke-width="1.33333" stroke-linejoin="round" stroke-miterlimit="10" fill="none" fill-rule="evenodd"/><path d="M792.841 363.292 1226.41 363.292" stroke="#FFFFFF" stroke-width="1.33333" stroke-linejoin="round" stroke-miterlimit="10" fill="none" fill-rule="evenodd"/><g clip-path="url(#clip9)"><text fill="#FFFFFF" font-family="Calibri,Calibri_MSFontService,sans-serif" font-weight="700" font-size="24" transform="translate(803.107 121)">t [s]</text></g><g clip-path="url(#clip10)"><text fill="#FFFFFF" font-family="Calibri,Calibri_MSFontService,sans-serif" font-weight="700" font-size="24" transform="translate(921.6 121)">b0</text></g><g clip-path="url(#clip11)"><text fill="#FFFFFF" font-family="Calibri,Calibri_MSFontService,sans-serif" font-weight="700" font-size="24" transform="translate(1013.43 121)">…</text></g><g clip-path="url(#clip12)"><text fill="#FFFFFF" font-family="Calibri,Calibri_MSFontService,sans-serif" font-weight="700" font-size="24" transform="translate(1104.68 121)">bM</text></g><g clip-path="url(#clip13)"><text font-family="Calibri,Calibri_MSFontService,sans-serif" font-weight="400" font-size="24" transform="translate(803.107 160)">12.010</text></g><g clip-path="url(#clip14)"><text font-family="Calibri,Calibri_MSFontService,sans-serif" font-weight="400" font-size="24" transform="translate(803.107 198)">12.249</text></g><g clip-path="url(#clip15)"><text font-family="Calibri,Calibri_MSFontService,sans-serif" font-weight="400" font-size="24" transform="translate(803.107 236)">12.501</text></g><g clip-path="url(#clip16)"><text font-family="Calibri,Calibri_MSFontService,sans-serif" font-weight="400" font-size="24" transform="translate(803.107 275)">…</text></g><g clip-path="url(#clip17)"><text font-family="Calibri,Calibri_MSFontService,sans-serif" font-weight="400" font-size="24" transform="translate(803.107 313)">15.252</text></g><g clip-path="url(#clip18)"><text font-family="Calibri,Calibri_MSFontService,sans-serif" font-weight="400" font-size="24" transform="translate(803.107 352)">15.500</text></g><text font-family="Calibri,Calibri_MSFontService,sans-serif" font-weight="700" font-size="43" transform="translate(997.076 69)">B</text><text font-family="Calibri,Calibri_MSFontService,sans-serif" font-weight="700" font-size="43" transform="translate(273.252 139)">A</text><path d="M403.597 477.608 516.687 477.608 516.687 516.008 403.597 516.008Z" fill="#70AD47" fill-rule="evenodd"/><path d="M516.687 477.608 624.814 477.608 624.814 516.008 516.687 516.008Z" fill="#70AD47" fill-rule="evenodd"/><path d="M624.814 477.608 726.379 477.608 726.379 516.008 624.814 516.008Z" fill="#70AD47" fill-rule="evenodd"/><path d="M726.379 477.608 835.829 477.608 835.829 516.008 726.379 516.008Z" fill="#70AD47" fill-rule="evenodd"/><path d="M403.597 516.008 516.687 516.008 516.687 554.408 403.597 554.408Z" fill="#D5E3CF" fill-rule="evenodd"/><path d="M516.687 516.008 624.814 516.008 624.814 554.408 516.687 554.408Z" fill="#B4C7E7" fill-rule="evenodd"/><path d="M624.814 516.008 726.379 516.008 726.379 554.408 624.814 554.408Z" fill="#D5E3CF" fill-rule="evenodd"/><path d="M726.379 516.008 835.829 516.008 835.829 554.408 726.379 554.408Z" fill="#F4B183" fill-rule="evenodd"/><path d="M403.597 554.408 516.687 554.408 516.687 592.808 403.597 592.808Z" fill="#EBF1E9" fill-rule="evenodd"/><path d="M516.687 554.408 624.814 554.408 624.814 592.808 516.687 592.808Z" fill="#B4C7E7" fill-rule="evenodd"/><path d="M624.814 554.408 726.379 554.408 726.379 592.808 624.814 592.808Z" fill="#EBF1E9" fill-rule="evenodd"/><path d="M726.379 554.408 835.829 554.408 835.829 592.808 726.379 592.808Z" fill="#F4B183" fill-rule="evenodd"/><path d="M403.597 592.808 516.687 592.808 516.687 631.208 403.597 631.208Z" fill="#D5E3CF" fill-rule="evenodd"/><path d="M516.687 592.808 624.814 592.808 624.814 631.208 516.687 631.208Z" fill="#B4C7E7" fill-rule="evenodd"/><path d="M624.814 592.808 726.379 592.808 726.379 631.208 624.814 631.208Z" fill="#D5E3CF" fill-rule="evenodd"/><path d="M726.379 592.808 835.829 592.808 835.829 631.208 726.379 631.208Z" fill="#F4B183" fill-rule="evenodd"/><path d="M403.597 631.208 516.687 631.208 516.687 669.608 403.597 669.608Z" fill="#EBF1E9" fill-rule="evenodd"/><path d="M516.687 631.208 624.814 631.208 624.814 669.608 516.687 669.608Z" fill="#B4C7E7" fill-rule="evenodd"/><path d="M624.814 631.208 726.379 631.208 726.379 669.608 624.814 669.608Z" fill="#EBF1E9" fill-rule="evenodd"/><path d="M726.379 631.208 835.829 631.208 835.829 669.608 726.379 669.608Z" fill="#F4B183" fill-rule="evenodd"/><path d="M516.687 476.941 516.687 670.274" stroke="#FFFFFF" stroke-width="1.33333" stroke-linejoin="round" stroke-miterlimit="10" fill="none" fill-rule="evenodd"/><path d="M624.814 476.941 624.814 670.274" stroke="#FFFFFF" stroke-width="1.33333" stroke-linejoin="round" stroke-miterlimit="10" fill="none" fill-rule="evenodd"/><path d="M726.379 476.941 726.379 670.274" stroke="#FFFFFF" stroke-width="1.33333" stroke-linejoin="round" stroke-miterlimit="10" fill="none" fill-rule="evenodd"/><path d="M402.93 516.008 836.495 516.008" stroke="#FFFFFF" stroke-width="4" stroke-linejoin="round" stroke-miterlimit="10" fill="none" fill-rule="evenodd"/><path d="M402.93 554.408 836.495 554.408" stroke="#FFFFFF" stroke-width="1.33333" stroke-linejoin="round" stroke-miterlimit="10" fill="none" fill-rule="evenodd"/><path d="M402.93 592.808 836.495 592.808" stroke="#FFFFFF" stroke-width="1.33333" stroke-linejoin="round" stroke-miterlimit="10" fill="none" fill-rule="evenodd"/><path d="M402.93 631.208 836.495 631.208" stroke="#FFFFFF" stroke-width="1.33333" stroke-linejoin="round" stroke-miterlimit="10" fill="none" fill-rule="evenodd"/><path d="M403.597 476.941 403.597 670.274" stroke="#FFFFFF" stroke-width="1.33333" stroke-linejoin="round" stroke-miterlimit="10" fill="none" fill-rule="evenodd"/><path d="M835.829 476.941 835.829 670.274" stroke="#FFFFFF" stroke-width="1.33333" stroke-linejoin="round" stroke-miterlimit="10" fill="none" fill-rule="evenodd"/><path d="M402.93 477.608 836.495 477.608" stroke="#FFFFFF" stroke-width="1.33333" stroke-linejoin="round" stroke-miterlimit="10" fill="none" fill-rule="evenodd"/><path d="M402.93 669.608 836.495 669.608" stroke="#FFFFFF" stroke-width="1.33333" stroke-linejoin="round" stroke-miterlimit="10" fill="none" fill-rule="evenodd"/><g clip-path="url(#clip19)"><text fill="#FFFFFF" font-family="Calibri,Calibri_MSFontService,sans-serif" font-weight="700" font-size="24" transform="translate(413.197 504)">t [s]</text></g><g clip-path="url(#clip20)"><text fill="#FFFFFF" font-family="Calibri,Calibri_MSFontService,sans-serif" font-weight="700" font-size="24" transform="translate(526.286 504)">c0</text></g><g clip-path="url(#clip21)"><text fill="#FFFFFF" font-family="Calibri,Calibri_MSFontService,sans-serif" font-weight="700" font-size="24" transform="translate(634.414 504)">…</text></g><g clip-path="url(#clip22)"><text fill="#FFFFFF" font-family="Calibri,Calibri_MSFontService,sans-serif" font-weight="700" font-size="24" transform="translate(735.979 504)">c(</text></g><text fill="#FFFFFF" font-family="Calibri,Calibri_MSFontService,sans-serif" font-weight="700" font-size="24" transform="translate(753.479 504)">N+M)</text><g clip-path="url(#clip23)"><text font-family="Calibri,Calibri_MSFontService,sans-serif" font-weight="400" font-size="24" transform="translate(413.197 543)">12.000</text></g><g clip-path="url(#clip24)"><text font-family="Calibri,Calibri_MSFontService,sans-serif" font-weight="400" font-size="24" transform="translate(413.197 581)">12.500</text></g><g clip-path="url(#clip25)"><text font-family="Calibri,Calibri_MSFontService,sans-serif" font-weight="400" font-size="24" transform="translate(413.197 620)">…</text></g><g clip-path="url(#clip26)"><text font-family="Calibri,Calibri_MSFontService,sans-serif" font-weight="400" font-size="24" transform="translate(413.197 658)">15.000</text></g><path d="M445.682 398.565 467.201 436.587 477.832 430.57 468.604 463.865 435.308 454.637 445.939 448.62 424.42 410.598Z" stroke="#2F528F" stroke-width="1.33333" stroke-miterlimit="8" fill="#4472C4" fill-rule="evenodd"/><path d="M848.675 414.609 822.907 448.787 832.661 456.141 798.446 460.941 793.645 426.725 803.399 434.079 829.167 399.902Z" stroke="#AE5A21" stroke-width="1.33333" stroke-miterlimit="8" fill="#ED7D31" fill-rule="evenodd"/><text font-family="Calibri,Calibri_MSFontService,sans-serif" font-weight="700" font-size="43" transform="translate(615.858 454)">C</text></g></svg>