<?xml version="1.0" encoding="UTF-8"?>
<svg width="400" height="200" version="1.1" xmlns="http://www.w3.org/2000/svg">
	<path d="m44.04 30.02 5.1511-14.006 5.1511 14.006c-1.5206-1.1188-3.3211-1.675-5.1289-1.6733-1.8079 2e-3 -5.1733 1.6733-5.1733 1.6733z" stroke="#000" stroke-linejoin="round" stroke-width=".44318"/>
	<path d="m49.19 25.55v112.05" fill="#255e91" stroke="#000" stroke-linecap="round" stroke-linejoin="round" stroke-width="2.2159"/>
	<path d="m27.63 28.96q-0.2344 0-0.2344-0.27832 0-0.14648 0.059-0.20508 0.8057-1.3916 1.9336-2.6514 1.1426-1.2744 2.5782-2.5635 1.4502-1.3037 2.9003-2.6074 1.4649-1.3037 2.3731-2.3145h-0.1172q-0.6592 0-1.9336-0.4248-1.2744-0.42481-2.0068-0.42481-0.791 0-1.5381 0.35157-0.7471 0.33691-0.9522 1.0547-0.044 0.21973-0.2343 0.21973h-0.3662q-0.2344 0-0.2344-0.30762v-0.0879q0.2344-0.8789 0.7617-1.6406 0.542-0.76172 1.3184-1.2305 0.791-0.4834 1.6406-0.4834 0.6006 0 0.9961 0.27832 0.3955 0.26367 0.9228 0.83496 0.5274 0.57129 0.8496 0.82031 0.337 0.24903 0.835 0.24903 0.6592 0 1.1719-0.60059 0.5273-0.60058 1.04-1.4941 0.088-0.0879 0.2198-0.0879h0.3515q0.1026 0 0.1611 0.0732 0.073 0.0732 0.073 0.19043 0 0.10254-0.059 0.19043-0.8056 1.3916-1.8896 2.6074-1.0693 1.2012-2.8125 2.7686-1.7285 1.5527-2.9297 2.6367-1.1865 1.0693-2.2266 2.2119 0.2344-0.0586 0.6299-0.0586 0.7325 0 1.9922 0.4248 1.2744 0.41016 1.9629 0.41016 0.7471 0 1.5088-0.32227 0.7617-0.32226 1.3184-0.9082 0.5566-0.58594 0.747-1.3477 0.073-0.20507 0.2344-0.20507h0.3662q0.1172 0 0.1904 0.10253 0.073 0.0879 0.073 0.19043 0 0.0293-0.029 0.0879-0.2783 1.1426-0.9668 2.1826-0.6884 1.0254-1.6992 1.6992-0.9961 0.65918-2.1386 0.65918-0.5713 0-0.9668-0.26367t-0.9375-0.83496q-0.5274-0.58594-0.8643-0.83496-0.3369-0.26368-0.8203-0.26368-1.4941 0-2.6807 2.0947-0.1025 0.10254-0.2051 0.10254z"/>
	<g stroke="#000" stroke-linejoin="round">
		<path d="m147 172.51 12.495 11.098-12.947 0.80029c1.0986-1.3893 1.6804-3.3043 1.7481-5.4112 0.067-2.0783-1.2967-6.4872-1.2967-6.4872z" stroke-width=".44318"/>
		<path d="m150.83 180.02-101.48-42.018" fill="#255e91" stroke-linecap="round" stroke-width="2.2159"/>
		<path d="m140.11 94.64 12.08 0.28973-11.645 9.9348c0.8733-1.8516 1.2725-3.801 1.2041-5.5863-0.069-1.8078-1.6389-4.6383-1.6389-4.6383z" stroke-width=".44318"/>
		<path d="m144.11 98.28-94.916 39.328" fill="#255e91" stroke-linecap="round" stroke-width="2.2159"/>
	</g>
	<path d="m152.53 171.22c0.326 0.9266 0.9492 1.5819 1.8683 1.9623 0.8332 0.34482 1.5703 0.28456 2.2088-0.17907 0.6355-0.46139 1.1542-1.1208 1.5565-1.9756 0.4076-0.83509 0.7291-1.7249 0.9651-2.6686-0.7952 0.55731-1.6416 0.65229-2.5356 0.28244-0.6831-0.28263-1.2584-0.66571-1.7253-1.1486-0.4659-0.48188-0.8189-1.0554-1.059-1.7193-0.2303-0.66788-0.3242-1.394-0.2824-2.1769 0.035-0.66066 0.1455-1.3021 0.3306-1.9243 0.1846-0.62893 0.4296-1.3034 0.7342-2.0225 0.3116-0.72102 0.5793-1.3437 0.8039-1.8696 0.2524-0.61729 0.3892-1.1498 0.4101-1.5992 0.026-0.56898-0.1418-0.92757-0.5044-1.0775-0.6528-0.26985-1.2134-0.10338-1.6837 0.50197-0.4644 0.60276-0.8269 1.3487-1.087 2.24-0.04 0.10998-0.113 0.14318-0.2192 0.0993l-0.2943-0.12169c-0.139-0.0575-0.203-0.17651-0.1921-0.35687l0.01-0.0854c0.3382-1.041 0.8076-1.8841 1.4076-2.5327 0.5967-0.65366 1.3115-0.80616 2.1474-0.46063 0.5867 0.24255 1.0712 0.66902 1.4544 1.2809 0.3925 0.61722 0.5751 1.2731 0.547 1.9687-0.014 0.35857-0.099 0.70844-0.2536 1.0496-0.083 0.20751-0.2721 0.65757-0.5682 1.3534-0.2975 0.69992-0.5284 1.2889-0.6928 1.7649-0.1648 0.47796-0.3048 0.95822-0.42 1.4408-0.1157 0.48432-0.186 0.98932-0.2108 1.5152-0.032 0.67754 0.062 1.3032 0.2838 1.876 0.222 0.57471 0.5981 0.97237 1.1279 1.1915 1.0681 0.44185 2.054 0.0529 2.9502-1.1569l2.1663-8.3962c0.063-0.23041 0.1971-0.39288 0.4027-0.4877 0.2057-0.10403 0.4251-0.10775 0.6585-0.0113 0.2013 0.0832 0.3729 0.22966 0.5149 0.43959 0.1503 0.2135 0.2233 0.44259 0.2189 0.68743 0 0.11314-0.012 0.18529-0.028 0.21635l-2.7858 10.977c-0.2577 0.98418-0.707 1.85-1.3496 2.5957-0.6471 0.7508-1.4201 1.253-2.3183 1.5035-0.8937 0.26571-1.8158 0.20289-2.7634-0.18928-0.4566-0.18895-0.9031-0.48727-1.339-0.8945-0.4358-0.39606-0.7788-0.86637-1.029-1.4102-0.2495-0.54219-0.3572-1.099-0.3237-1.6699 0.034-0.579 0.2035-1.0206 0.5081-1.3258 0.3036-0.30432 0.688-0.35979 1.1538-0.16708 0.2795 0.11563 0.5071 0.31439 0.6831 0.59665 0.1842 0.29645 0.268 0.61473 0.251 0.95514-0.024 0.4862-0.1945 0.84989-0.5117 1.0904-0.3179 0.24102-0.6783 0.27857-1.0804 0.11217-0.017-0.0177-0.033-0.035-0.05-0.0526l-0.051-0.0213z"/>
	<path d="m134.54 93.32c0.3279 0.1636 0.7756 0.12765 1.3435-0.10761 0.5506-0.22813 1.0196-0.74832 1.4081-1.5632 0.3896-0.82896 0.6437-1.6643 0.7614-2.5066l0.9436-6.4417c0.1457-1.1862 0.21-1.9851 0.192-2.391-0.026-0.57695-0.1779-1.0283-0.4576-1.3531-0.2714-0.32944-0.6366-0.39953-1.0953-0.20956-0.5845 0.24211-1.1207 0.70307-1.6074 1.3813-0.486 0.66495-0.8826 1.4242-1.1898 2.2762-0.3064 0.83698-0.5086 1.639-0.6074 2.4062-0.027 0.15814-0.093 0.25919-0.1993 0.3032l-0.3321 0.13755c-0.1417 0.0587-0.2192-0.0167-0.2325-0.22622l-0.01-0.0994c0.1241-0.91538 0.3752-1.8652 0.7541-2.8495 0.3802-1.0008 0.866-1.8868 1.4573-2.6561 0.6023-0.77551 1.2604-1.3118 1.9728-1.6069 0.6764-0.28017 1.2955-0.30219 1.8559-0.0666 0.5678 0.23121 0.9791 0.69413 1.2341 1.3866 0.2856-0.84691 0.6622-1.6184 1.1299-2.3133 0.4781-0.70078 1.0108-1.1734 1.597-1.4162 0.3968-0.16436 0.8052-0.23967 1.2247-0.22606 0.4188 2e-3 0.7629 0.13409 1.0323 0.39565 0.2688 0.26094 0.4089 0.66702 0.4209 1.2172 0.013 0.5939-0.1276 1.1688-0.4208 1.7253-0.2838 0.53996-0.6564 0.9051-1.1184 1.0965-0.2932 0.12147-0.541 0.10448-0.7434-0.0511-0.2028-0.15585-0.3098-0.41473-0.3208-0.77705-0.015-0.48826 0.1021-0.96906 0.351-1.4421 0.2582-0.48931 0.5705-0.84508 0.9368-1.0665-0.3412-0.19611-0.8043-0.17328-1.3887 0.0688-0.5935 0.24583-1.0987 0.81032-1.5142 1.6905-0.4047 0.8726-0.6797 1.7687-0.8258 2.6874l-0.949 6.4699c-0.1542 0.9612-0.2187 1.7227-0.1944 2.287 0.024 0.55166 0.1695 0.97559 0.4366 1.2727 0.2745 0.28222 0.6223 0.33573 1.0439 0.16108 0.8259-0.34216 1.5468-1.0898 2.1655-2.248 0.6307-1.1794 1.0368-2.3585 1.2164-3.5384 0.031-0.14489 0.1-0.23908 0.2044-0.2825l0.3274-0.13566c0.07-0.0289 0.1275-0.0198 0.1727 0.0274 0.045 0.0363 0.068 0.0925 0.07 0.16865 4e-4 0.0218-0.01 0.0579-0.024 0.10869-0.22 1.4237-0.7186 2.8057-1.4935 4.1486-0.7696 1.3339-1.6544 2.2054-2.6581 2.6213-0.6435 0.26657-1.2358 0.29952-1.7781 0.0985-0.5357-0.21568-0.9291-0.64176-1.1799-1.2801-0.2456 0.74736-0.6017 1.4576-1.0681 2.1315-0.4563 0.66819-0.9585 1.1152-1.5076 1.3427-0.3774 0.1564-0.7728 0.23527-1.1864 0.23657-0.4048 8e-3 -0.7426-0.10224-1.0135-0.33151-0.2716-0.22979-0.4246-0.60074-0.4582-1.114-0.033-0.5043 0.079-1.0221 0.3388-1.5532 0.2682-0.54679 0.6202-0.91091 1.0554-1.0912 0.2959-0.12258 0.5506-0.11344 0.7637 0.0273 0.2123 0.12988 0.3284 0.36991 0.3485 0.71964 0.026 0.45445-0.077 0.9016-0.3075 1.3417-0.2218 0.43554-0.5153 0.77153-0.8807 1.0086z"/>
	<g fill="#cc5151" fill-rule="evenodd" shape-rendering="auto">
		<path d="m16.8 78.1a1 0.43649 0.28323 0 0-0.045 0.0225 1 0.43649 0.28323 0 0 0.1623 0.61543c0.6842 0.24018 0.6306 0.22219 1.187 0.41748 0.05 0.0546 0.098 0.10961 0.099 0.10972 8e-4 4.9e-4 0.083 0.0498 0.1011 0.0577 0.018 8e-3 0.029 0.0132 0.04 0.0174 0.04 0.0174 0.092 0.0267 0.1354 0.0428-0.01-3e-3 0.018 8e-3 0.013 5e-3 0.043 0.0186 0.1382 0.0467 0.263 0.089 0.2644 0.0882 0.6607 0.22039 1.1074 0.37183 0.8932 0.30287 1.9949 0.67643 2.6935 0.90997 0.3489 0.11693 0.483 0.17003 0.726 0.23802 0.013 5e-3 0.043 5e-3 0.068 0.016 0.012 5e-3 0.026 0.0113 0.065 0.0146 0.039 3e-3 0.1677 0.0256 0.1682 0.0258 3e-4 -1e-5 0.1405-7e-3 0.2662-0.0116 10.944 3.2299 24.471 4.4409 37.433 2.9489 15.842-1.8235 28.176-7.2073 32.354-14.123 4.1773-6.9151-0.4358-14.314-12.101-19.406a1 0.43649 0.28323 0 0-1.4122-3e-3 1 0.43649 0.28323 0 0 0.01 0.61646c11.16 4.8712 15.568 11.946 11.572 18.562-3.9965 6.6157-15.792 11.764-30.948 13.509-13.608 1.5664-27.929 0.0769-38.817-3.7496-0.9935-0.3507-1.6073-0.571-3.7861-1.3338a1 0.43649 0.28323 0 0-1.3598 0.0413z"/>
		<path d="m22.73 82.91-7.2764-5.2342 13.269 1.9606c-3.41 0.39167-5.8208 1.7172-5.9922 3.2736z"/>
		<path d="m15.21 77.55a0.37505 0.1637 0.28323 0 0-0.0773 0.21067l7.278 5.2329a0.37505 0.1637 0.28323 0 0 0.69303-0.0746c0.16388-1.4875 2.4651-2.7493 5.717-3.1228a0.37505 0.1637 0.28323 0 0 0.0181-0.3135l-13.268-1.9612a0.37505 0.1637 0.28323 0 0-0.36029 0.0286zm1.0988 0.42384 11.585 1.7124c-2.8281 0.47322-4.7706 1.5374-5.2338 2.8582z"/>
		<path d="m227.19 78.1a1 0.43649 0.28323 0 0-0.045 0.0225 1 0.43649 0.28323 0 0 0.1624 0.61543c0.6875 0.24026 0.6325 0.22307 1.19 0.41882 0.037 0.0473 0.074 0.0962 0.074 0.0963 8e-4 5e-4 0.096 0.0556 0.1165 0.0644 0.02 9e-3 0.032 0.0141 0.043 0.0188v2e-3c0.046 0.0203 0.1105 0.0292 0.16 0.0481 0 2e-3 -0.024-0.0102-0.016-7e-3 0.038 0.0167 0.1465 0.0463 0.28 0.0896 0.2639 0.088 0.6608 0.22315 1.1073 0.37453 0.8946 0.30209 1.9924 0.67506 2.6904 0.90863 0.3488 0.11688 0.4891 0.1686 0.7261 0.23532 0.013 5e-3 0.028 0.0121 0.068 0.016 0.013 5e-3 0.026 0.0115 0.065 0.0146 0.038 3e-3 0.1585 0.0243 0.159 0.0245 1e-4 7e-5 0.1433-5e-3 0.2755-0.0103 10.944 3.2308 24.473 4.4424 37.436 2.9503 15.842-1.8235 28.176-7.2073 32.354-14.123 4.1773-6.9151-0.4358-14.314-12.101-19.406a1 0.43649 0.28323 0 0-1.4121-3e-3 1 0.43649 0.28323 0 0 0.01 0.61646c11.16 4.8712 15.568 11.946 11.572 18.562-3.9965 6.6157-15.792 11.764-30.948 13.509-13.608 1.5664-27.929 0.0769-38.817-3.7496-0.9935-0.35067-1.6073-0.57102-3.7861-1.3338a1 0.43649 0.28323 0 0-1.3598 0.0413z"/>
		<path d="m295.26 55.5-5.92-5.5467 12.707 2.5841c-3.4915 0.22511-6.2241 1.4254-6.7871 2.9626z"/>
		<path d="m289.07 49.83a0.37505 0.1637 0.28323 0 0-0.071 0.18399l5.918 5.545a0.37505 0.1637 0.28323 0 0 0.7118-0.0399c0.5381-1.4691 3.1424-2.613 6.4718-2.8277a0.37505 0.1637 0.28323 0 0 0.098-0.31072l-12.703-2.5832a0.37505 0.1637 0.28323 0 0-0.4245 0.0325zm1.0379 0.45307 11.095 2.2584c-2.9316 0.33433-5.1306 1.2972-5.9242 2.586z"/>
	</g>
	<path d="m253.91 30.02 5.1511-14.006 5.1511 14.006c-1.5206-1.1188-3.3211-1.675-5.1289-1.6733-1.8079 2e-3 -5.1733 1.6733-5.1733 1.6733z" stroke="#000" stroke-linejoin="round" stroke-width=".44318"/>
	<path d="m259.06 25.55v112.05" fill="#255e91" stroke="#000" stroke-linecap="round" stroke-linejoin="round" stroke-width="2.2159"/>
	<path d="m237.5 28.96q-0.2344 0-0.2344-0.27832 0-0.14648 0.059-0.20508 0.8057-1.3916 1.9336-2.6514 1.1426-1.2744 2.5782-2.5635 1.4502-1.3037 2.9003-2.6074 1.4649-1.3037 2.3731-2.3145h-0.1172q-0.6592 0-1.9336-0.4248-1.2744-0.42481-2.0068-0.42481-0.791 0-1.5381 0.35157-0.7471 0.33691-0.9522 1.0547-0.044 0.21973-0.2343 0.21973h-0.3662q-0.2344 0-0.2344-0.30762v-0.0879q0.2344-0.8789 0.7617-1.6406 0.542-0.76172 1.3184-1.2305 0.791-0.4834 1.6406-0.4834 0.6006 0 0.9961 0.27832 0.3955 0.26367 0.9228 0.83496 0.5274 0.57129 0.8496 0.82031 0.337 0.24903 0.835 0.24903 0.6592 0 1.1719-0.60059 0.5273-0.60058 1.04-1.4941 0.088-0.0879 0.2198-0.0879h0.3515q0.1026 0 0.1611 0.0732 0.073 0.0732 0.073 0.19043 0 0.10254-0.059 0.19043-0.8056 1.3916-1.8896 2.6074-1.0693 1.2012-2.8125 2.7686-1.7285 1.5527-2.9297 2.6367-1.1865 1.0693-2.2266 2.2119 0.2344-0.0586 0.6299-0.0586 0.7325 0 1.9922 0.4248 1.2744 0.41016 1.9629 0.41016 0.7471 0 1.5088-0.32227 0.7617-0.32226 1.3184-0.9082 0.5566-0.58594 0.747-1.3477 0.073-0.20507 0.2344-0.20507h0.3662q0.1172 0 0.1904 0.10253 0.073 0.0879 0.073 0.19043 0 0.0293-0.029 0.0879-0.2783 1.1426-0.9668 2.1826-0.6884 1.0254-1.6992 1.6992-0.9961 0.65918-2.1386 0.65918-0.5713 0-0.9668-0.26367t-0.9375-0.83496q-0.5274-0.58594-0.8643-0.83496-0.3369-0.26368-0.8203-0.26368-1.4941 0-2.6807 2.0947-0.1025 0.10254-0.2051 0.10254z"/>
	<path d="m358.81 167.97c0.2946 0.41754 0.7245 0.74365 1.2894 0.97774 0.5478 0.22696 1.0437 0.11027 1.4864-0.34865 0.4412-0.46737 0.7509-1.0439 0.9297-1.7285l1.3504-4.9838c0.2126-0.89852 0.3234-1.5216 0.334-1.8729 0.015-0.49625-0.092-0.97736-0.3195-1.4438-0.2188-0.46186-0.5376-0.7792-0.9566-0.95288-0.534-0.22136-1.0427-0.23232-1.5269-0.0325-0.4851 0.1908-0.9019 0.52409-1.2506 1.0009-0.3497 0.46904-0.6057 0.98938-0.7675 1.5614-0.037 0.11494-0.1087 0.15025-0.2088 0.10879l-0.3124-0.12949c-0.1333-0.0553-0.1955-0.17621-0.1864-0.36263v-0.0883c0.2022-0.67381 0.5181-1.277 0.9472-1.81 0.4276-0.54013 0.9339-0.90756 1.5188-1.1038 0.5915-0.19235 1.2103-0.15415 1.8577 0.11419 0.6147 0.25479 1.162 0.67563 1.6431 1.2638 0.4905 0.59315 0.8305 1.2668 1.0197 2.0223 0.3036-0.49252 0.6817-0.85404 1.1346-1.0855 0.4597-0.22744 0.9554-0.23053 1.488-0.01 0.3605 0.14945 0.7282 0.37937 1.1034 0.69018 0.3755 0.30135 0.6809 0.65644 0.9161 1.0657 0.2358 0.41018 0.3519 0.84976 0.3481 1.3193 0 0.51026-0.1484 0.895-0.4333 1.1533-0.2773 0.25246-0.6321 0.28944-1.0639 0.11049-0.274-0.11356-0.5008-0.3121-0.6803-0.59525-0.1791-0.28268-0.2661-0.58132-0.261-0.8957 0.01-0.42148 0.1324-0.7385 0.3768-0.95144 0.2519-0.21896 0.5466-0.28748 0.8847-0.20596-0.3007-0.40771-0.7179-0.72197-1.2518-0.9433-0.5422-0.22471-1.0204-0.12546-1.4359 0.29904-0.4088 0.42969-0.7051 0.97762-0.8883 1.6449l-1.2704 4.9656c-0.2098 0.75987-0.3225 1.4138-0.3382 1.9596-0.015 0.53739 0.095 1.0552 0.3315 1.553 0.246 0.4922 0.5789 0.82567 0.9983 0.99942 0.8216 0.34047 1.5617 0.20368 2.2176-0.40769 0.6608-0.61485 1.0985-1.3999 1.315-2.353 0.034-0.10913 0.1043-0.14183 0.2049-0.1001l0.3165 0.13112c0.067 0.028 0.1219 0.0814 0.1634 0.16037 0.042 0.0687 0.062 0.13864 0.061 0.21049 0 0.0212-0.01 0.0476-0.023 0.083-0.2591 1.1547-0.7906 2.0655-1.5981 2.7281-0.8123 0.66701-1.7224 0.79412-2.7264 0.37809-0.6437-0.26674-1.2214-0.71862-1.7319-1.3544-0.5003-0.6409-0.8451-1.3635-1.0346-2.1662-0.2937 0.50789-0.6932 0.89537-1.1981 1.1618-0.4978 0.27077-1.022 0.29264-1.5713 0.065-0.3775-0.15645-0.7643-0.40178-1.1599-0.73567-0.387-0.3195-0.6966-0.69681-0.9285-1.1314-0.2315-0.43362-0.3342-0.90254-0.3086-1.4063 0.025-0.49184 0.1877-0.87807 0.4906-1.1582 0.3082-0.28727 0.6735-0.34296 1.0968-0.16754 0.288 0.11933 0.5246 0.32603 0.71 0.62043 0.1862 0.28469 0.2723 0.5957 0.258 0.93335-0.019 0.44108-0.1586 0.7756-0.4161 1.0046-0.2535 0.23144-0.566 0.31259-0.9374 0.24306z"/>
	<path d="m356.93 172.3 12.391 10.985-12.999 0.68769c1.1196-1.3525 1.7284-3.2251 1.8244-5.2911 0.096-2.0389-1.2167-6.3819-1.2167-6.3819z" stroke="#000" stroke-linejoin="round" stroke-width=".44318"/>
	<path d="m360.68 179.7-101.62-42.097" fill="#255e91" stroke="#000" stroke-linecap="round" stroke-linejoin="round" stroke-width="2.2159"/>
	<path d="m355.72 90.86c0.3878 0.60872 1.034 0.7249 1.9401 0.35083 0.8214-0.33916 1.5265-0.98204 2.117-1.9322 0.5935-0.95483 1.0683-2.0167 1.4243-3.1882 0.3671-1.1726 0.6501-2.3444 0.8482-3.5157-0.7787 1.2499-1.6236 2.0608-2.5382 2.4387-0.6988 0.28873-1.2972 0.38579-1.7961 0.29113-0.4998-0.095-0.8962-0.37906-1.1893-0.85354-0.2856-0.49086-0.4409-1.1639-0.4658-2.0211-0.021-0.7309 0.037-1.5146 0.1735-2.3516 0.137-0.85239 0.3347-1.8188 0.5934-2.901 0.2691-1.1041 0.5027-2.0675 0.7004-2.8879 0.2227-0.96227 0.3285-1.7232 0.3163-2.2801-0.015-0.71067-0.2269-0.98286-0.6342-0.8142-0.7332 0.30366-1.3258 1.0442-1.7757 2.2161-0.4385 1.1494-0.7497 2.3555-0.9347 3.6164-0.031 0.16191-0.1042 0.26645-0.2198 0.31428l-0.3206 0.13265c-0.1514 0.0627-0.2309-0.0132-0.2386-0.22769v-0.10201c0.2461-1.5076 0.6573-2.9329 1.2351-4.2729 0.5815-1.3613 1.346-2.2412 2.2902-2.6323 0.6627-0.2745 1.2267-0.22321 1.6906 0.15288 0.4713 0.37104 0.7132 0.9875 0.7271 1.8468 0.01 0.43947-0.062 0.93223-0.2063 1.478-0.076 0.31989-0.2482 1.0184-0.5162 2.091-0.2664 1.0658-0.4681 1.9355-0.6058 2.6118-0.1372 0.67359-0.2477 1.3225-0.3316 1.9468-0.084 0.62204-0.1189 1.2218-0.106 1.7994 0.016 0.73779 0.1563 1.3067 0.419 1.7085 0.2621 0.40034 0.6649 0.48762 1.21 0.26236 1.099-0.45412 2.0773-1.6968 2.9421-3.7454l2.0263-11.594c0.063-0.34427 0.2081-0.67572 0.4349-0.99424 0.2271-0.33079 0.4723-0.55086 0.7356-0.65993 0.2269-0.094 0.4217-0.0798 0.5841 0.0423 0.1711 0.11841 0.2558 0.33144 0.2538 0.6389-9e-4 0.1416-0.01 0.23964-0.029 0.29423l-2.7139 14.866c-0.2293 1.2189-0.65 2.4608-1.2603 3.7259-0.6061 1.2565-1.3376 2.3606-2.1951 3.3158-0.8451 0.95795-1.7308 1.6271-2.6599 2.0106-0.4476 0.18473-0.8938 0.26093-1.3392 0.22856-0.4457-0.0221-0.8107-0.18636-1.0951-0.49336-0.2854-0.30784-0.4379-0.74476-0.4568-1.3118-0.02-0.57953 0.1045-1.1416 0.373-1.6857 0.2692-0.54562 0.6403-0.91659 1.1125-1.1117 0.2834-0.11706 0.5223-0.10949 0.7166 0.0225 0.2029 0.13874 0.3086 0.38077 0.3169 0.72578 0.012 0.48982-0.1264 0.97736-0.4153 1.463-0.2881 0.48437-0.6316 0.80856-1.031 0.97351-0.017-4e-3 -0.034-7e-3 -0.053-9e-3l-0.052 0.0214z"/>
	<path d="m349.44 95.03 12.072 0.32273-11.679 9.928c0.8792-1.8523 1.2859-3.8048 1.2249-5.5946-0.06-1.8134-1.6184-4.6561-1.6184-4.6561z" stroke="#000" stroke-linejoin="round" stroke-width=".44318"/>
	<path d="m353.42 98.69-94.358 38.91" fill="#255e91" stroke="#000" stroke-linecap="round" stroke-linejoin="round" stroke-width="2.2159"/>
</svg>
